<?xml version="1.0" standalone="no"?>
<!DOCTYPE svg PUBLIC "-//W3C//DTD SVG 1.1//EN" "http://www.w3.org/Graphics/SVG/1.1/DTD/svg11.dtd" >
<svg xmlns="http://www.w3.org/2000/svg">
<metadata></metadata>
<defs>
<font id="proximasansblackregular" horiz-adv-x="575" >
<font-face units-per-em="2048" ascent="1638" descent="-410" />
<missing-glyph horiz-adv-x="425" />
<glyph horiz-adv-x="2048" />
<glyph horiz-adv-x="2048" />
<glyph horiz-adv-x="682" />
<glyph horiz-adv-x="811" d="M43 1346q63 -84 156.5 -132.5t203.5 -48.5q111 0 204.5 48.5t154.5 132.5l-187 133q-29 -41 -74.5 -65.5t-99.5 -24.5q-53 0 -99 24.5t-75 65.5z" />
<glyph horiz-adv-x="395" d="M35 1298q0 -68 48 -114.5t116 -46.5t114.5 46.5t46.5 114.5t-47 116t-114 48q-68 0 -116 -48t-48 -116z" />
<glyph horiz-adv-x="436" d="M2 1337q0 -80 56.5 -140t158.5 -60t158.5 60t56.5 140q0 82 -56.5 142.5t-158.5 60.5t-158.5 -60.5t-56.5 -142.5zM150 1337q0 90 67 90q68 0 68 -90q0 -88 -68 -88t-67 88z" />
<glyph unicode="&#xa;" horiz-adv-x="819" d="M0 1126h303l107 308h-293zM410 1126h303l106 308h-293z" />
<glyph horiz-adv-x="385" d="M0 43v-227q0 -111 61.5 -161t161.5 -50q41 0 84 9t78 38l-63 123q-31 -31 -78 -31q-33 0 -51.5 19.5t-18.5 50.5v229h-174z" />
<glyph horiz-adv-x="649" d="M0 1434l201 -308h264l184 308h-256l-63 -134l-74 134h-256z" />
<glyph unicode="&#xd;" horiz-adv-x="1024" />
<glyph horiz-adv-x="194" d="M-467 0h283l874 1366h-282z" />
<glyph horiz-adv-x="1185" d="M-47 729h164v-729h368v729h170v260h-170v51q0 41 42 64.5t89 23.5q59 0 103.5 -15t77.5 -69l182 189q-90 96 -186.5 131t-233.5 35q-82 0 -161 -20.5t-141 -63.5t-101 -108.5t-39 -157.5v-60h-164v-260zM715 0h366v989h-366v-989z" />
<glyph horiz-adv-x="1185" d="M-47 729h164v-729h368v729h170v260h-170v51q0 35 35 61.5t68 26.5q35 0 69.5 -9t57.5 -29v-1090h366v1366h-366v-47q-35 39 -85 59.5t-108 20.5q-82 0 -155.5 -25.5t-129 -73t-88 -112t-32.5 -139.5v-60h-164v-260z" />
<glyph horiz-adv-x="1079" d="M0 596h111v-596h931v326h-518v270h117v217h-117v553h-413v-553h-111v-217z" />
<glyph d="M-35 596h139v-596h367v596h147v205h-147v565h-367v-565h-139v-205z" />
<glyph horiz-adv-x="1232" d="M76 0h1081v326h-579l565 714v326h-1067v-328l549 2l-549 -712v-328zM295 1792l201 -308h264l184 308h-256l-63 -134l-74 134h-256z" />
<glyph horiz-adv-x="999" d="M70 0h860v262l-424 -2l416 471v258h-852v-258h407l-407 -461v-270zM174 1434l201 -308h264l184 308h-256l-63 -134l-74 134h-256z" />
<glyph unicode=" "  horiz-adv-x="425" />
<glyph unicode="&#x09;" horiz-adv-x="425" />
<glyph unicode="&#xa0;" horiz-adv-x="425" />
<glyph unicode="!" d="M68 1366l55 -858h332l53 858h-440zM70 209q0 -47 17 -87t47 -68.5t70 -46t85 -17.5t84 17.5t68.5 46t47 68.5t17.5 87q0 45 -17.5 84t-47 67.5t-68.5 46t-84 17.5t-85 -17.5t-70 -46t-47 -67.5t-17 -84z" />
<glyph unicode="&#x22;" horiz-adv-x="960" d="M70 1202q0 -23 6 -43l106 -465h152l106 467q6 20 4 43v-2q0 39 -14 73t-38.5 59.5t-59.5 40t-74 14.5t-73.5 -14.5t-60.5 -40t-40 -59.5t-14 -73zM516 1202q0 -10 1 -21.5t3 -21.5l109 -465h149l109 467q2 10 3 20.5t1 22.5q0 39 -14.5 73t-40 58.5t-60.5 39t-74 14.5 q-78 0 -132 -54.5t-54 -132.5z" />
<glyph unicode="#" horiz-adv-x="1394" d="M55 322l176 2l-108 -324h260l106 324l162 -2l-108 -322h260l106 324l193 -2l69 225h-186l90 270h187l69 223l-180 -2l109 328h-261l-108 -328l-160 2l109 326h-260l-109 -328l-184 2l-70 -223h178l-90 -270h-178zM565 547l90 270h160l-90 -270h-160z" />
<glyph unicode="$" horiz-adv-x="1394" d="M68 188q29 -31 71.5 -65.5t104 -67t141.5 -58.5t184 -34v-168h262v174q229 33 352.5 150t121.5 297h2q0 104 -35 177t-97.5 124t-149.5 84t-194 55v246q63 -16 122 -55t94 -80l215 235q-57 63 -157.5 118.5t-273.5 78.5v174h-262v-174q-115 -14 -204 -56.5t-150 -100.5 t-93 -129t-32 -140q0 -72 21.5 -140.5t76 -128t147.5 -106.5t234 -76v-260q-47 12 -93 37t-84 52.5t-66.5 55t-42.5 46.5zM471 999q0 41 28.5 71t78.5 32v-195q-51 6 -79 33t-28 59zM815 266v209q53 -10 80 -39.5t27 -70.5q0 -37 -30 -66t-77 -33z" />
<glyph unicode="%" horiz-adv-x="1681" d="M41 1061q0 -68 24.5 -130.5t71.5 -110.5t114.5 -75.5t154.5 -27.5q88 0 156.5 27.5t115.5 75.5t70.5 110.5t23.5 130.5h2q0 70 -25.5 132t-72.5 109.5t-114.5 76t-155.5 28.5q-86 0 -154 -28.5t-115 -76t-71.5 -111t-24.5 -130.5zM266 0h281l874 1366h-282zM289 1061 q0 152 114 151q119 1 119 -151q0 -150 -119 -150q-115 0 -114 150zM913 303q0 -70 25 -132t71 -109.5t114.5 -75t154.5 -27.5t154.5 27.5t115.5 75t72 109.5t25 132q0 68 -25 130.5t-72 110.5t-115.5 75.5t-154.5 27.5t-154.5 -27.5t-114.5 -75.5t-71 -110.5t-25 -130.5z M1161 303q0 152 117 152q57 0 88 -38t29 -114h2q-4 -152 -119 -151q-117 0 -117 151z" />
<glyph unicode="&#x26;" horiz-adv-x="1413" d="M76 379q0 -111 41 -190.5t108.5 -131t152.5 -75t175 -23.5q131 0 221 37t131 74q8 -10 20.5 -27.5t20.5 -29t10 -13.5h455q-53 59 -120.5 140t-133.5 153q23 29 49.5 67.5t53 80.5t48 83t35.5 74l-284 135q-10 -31 -19.5 -56.5t-19.5 -50t-23.5 -50t-31.5 -58.5 q-23 27 -38.5 50.5t-45.5 66.5q-10 12 -31 41t-31 43q135 72 223 166t88 227q0 76 -35.5 131t-94 92t-131 54.5t-146.5 17.5q-92 0 -171 -23.5t-138.5 -68.5t-93 -107.5t-33.5 -138.5q0 -72 20.5 -136.5t73.5 -141.5q-172 -90 -238.5 -193.5t-66.5 -218.5zM461 395 q0 47 17.5 84t70.5 70q12 -16 28.5 -42t28.5 -44q25 -37 52.5 -76t74.5 -102q-16 -14 -49 -28.5t-76 -14.5q-23 0 -48 8t-48 26.5t-37 47t-14 71.5zM647 1049q0 51 31 76.5t67 25.5q29 0 52.5 -26.5t23.5 -59.5q0 -43 -33.5 -77t-91.5 -62q-14 23 -31.5 58.5t-17.5 64.5z " />
<glyph unicode="'" horiz-adv-x="514" d="M70 1202q0 -23 6 -43l106 -465h152l106 467q6 20 4 43h2q0 39 -15 73t-40.5 58.5t-59.5 39t-73 14.5t-73.5 -14.5t-60.5 -40t-40 -59.5t-14 -73z" />
<glyph unicode="(" horiz-adv-x="708" d="M76 682q0 -133 28.5 -267t78.5 -255t116 -219.5t139 -161.5l234 92q-100 172 -150.5 367.5t-50.5 443.5q0 250 50 445.5t151 369.5l-234 90q-74 -63 -139.5 -161.5t-115.5 -219.5t-78.5 -255t-28.5 -269z" />
<glyph unicode=")" horiz-adv-x="708" d="M37 -129l235 -92q74 63 139.5 161.5t114.5 219.5t79 255t30 267q0 135 -30 269t-79 255t-115.5 219.5t-140.5 161.5l-233 -90q100 -174 151.5 -369.5t51.5 -445.5q0 -248 -51.5 -443.5t-151.5 -367.5z" />
<glyph unicode="*" horiz-adv-x="741" d="M35 967l82 -144l180 115l-8 -215h166l-11 215l181 -115l84 144l-191 98l191 98l-84 144l-181 -115l11 215h-166l8 -215l-180 115l-82 -144l188 -98z" />
<glyph unicode="+" horiz-adv-x="1046" d="M59 393l344 2v-395h240v395l344 -2v2v215l-344 -2v381h-240v-381l-344 2v-217z" />
<glyph unicode="," d="M70 207q0 -61 35.5 -109.5t80.5 -70.5q20 -10 50 -16.5t57 -2.5q-6 -27 -27.5 -55.5t-49.5 -53t-56.5 -43t-48.5 -24.5l149 -121q129 92 187.5 210t58.5 253q0 78 -22.5 126t-56.5 75.5t-72 38t-68 10.5q-45 0 -84 -17.5t-69 -46t-47 -68.5t-17 -85z" />
<glyph unicode="-" horiz-adv-x="614" d="M61 342h492v307h-492v-307z" />
<glyph unicode="." d="M70 207q0 -45 17 -85t47 -68.5t69 -46t84 -17.5t85 17.5t69.5 46t47 68.5t17.5 85t-17.5 85t-47 68.5t-69.5 46t-85 17.5t-84 -17.5t-69 -46t-47 -68.5t-17 -85z" />
<glyph unicode="/" horiz-adv-x="741" d="M0 -41h256l485 1448h-256z" />
<glyph unicode="0" horiz-adv-x="1394" d="M39 682q0 -145 41 -275.5t124 -230.5t207 -158.5t287 -58.5q162 0 286 58.5t206 158.5t124 230.5t42 275.5t-42 276.5t-124 231.5t-206 158.5t-286 58.5q-164 0 -287.5 -58.5t-206.5 -158.5t-124 -231.5t-41 -276.5zM455 682q0 63 9 134t35.5 129.5t75 96t123.5 37.5 q76 0 123 -37.5t74 -96t36 -129.5t9 -134t-9 -133t-36 -128.5t-74 -96t-123 -37.5t-124 37.5t-74.5 96t-35.5 128t-9 133.5z" />
<glyph unicode="1" horiz-adv-x="1394" d="M160 854l233 -244l232 230v-840h409v1366h-352z" />
<glyph unicode="2" horiz-adv-x="1394" d="M68 1176l223 -271q25 31 60.5 62.5t80.5 56.5t98.5 40t112.5 15q98 0 154.5 -40t56.5 -113q0 -41 -17.5 -74t-54.5 -66.5t-93 -74.5t-134 -97q-236 -164 -340 -238l-104 -75v-301h1173v328h-604l24 15q25 15 67 41t96.5 60.5t113.5 73.5q55 37 107.5 82t93.5 100.5 t65.5 120t24.5 135.5q0 90 -34 172t-104.5 143.5t-181 98.5t-264.5 37q-94 0 -190.5 -18.5t-181.5 -50t-151.5 -73.5t-96.5 -89z" />
<glyph unicode="3" horiz-adv-x="1394" d="M68 188q63 -61 127.5 -104t137.5 -70.5t157.5 -41t189.5 -13.5q299 0 455.5 110.5t156.5 307.5q0 137 -89 220t-234 108q61 8 115.5 34.5t95.5 68.5t65.5 95t24.5 115q0 100 -43 174t-121 122t-186.5 70.5t-239.5 22.5q-193 0 -344.5 -64.5t-249.5 -181.5l199 -254 q23 31 60.5 61.5t85.5 55.5t104.5 40t115.5 15q115 0 161 -25.5t46 -82.5q0 -80 -105.5 -105.5t-322.5 -15.5v-324q227 12 339 -10t112 -110q0 -18 -10.5 -39t-34 -39.5t-61.5 -29.5t-95 -11q-123 0 -230.5 44t-179.5 130z" />
<glyph unicode="4" horiz-adv-x="1394" d="M63 256h699v-256h418v256h153v324h-157v786h-570l-543 -829v-281zM485 580l277 430v-430h-277z" />
<glyph unicode="5" horiz-adv-x="1394" d="M96 188q92 -104 245 -166.5t366 -62.5q139 0 252.5 34t193.5 97.5t123 156.5t43 210q0 104 -34 185t-94.5 137.5t-143 86t-181.5 29.5q-92 0 -178 -26.5t-139 -75.5v245h676v328h-1086v-803l285 -86q39 57 111.5 91t146.5 34q127 0 176 -46t49 -112q0 -59 -54 -108 t-161 -49q-117 0 -211 50t-162 124z" />
<glyph unicode="6" horiz-adv-x="1394" d="M76 682q0 -166 43 -299t125 -227.5t201.5 -145.5t273.5 -51q104 0 212.5 28.5t198 90t146.5 158t57 231.5q0 104 -41 189t-110.5 145.5t-159.5 93.5t-191 33q-109 0 -193.5 -33t-143.5 -115q0 74 28.5 129.5t73.5 91t102.5 53t114.5 17.5q82 0 151.5 -19.5t120.5 -64.5 l175 301q-90 59 -207 89t-240 30q-170 0 -306 -51t-231.5 -146.5t-147.5 -228.5t-52 -299zM492 565q29 39 87 61.5t126 22.5q41 0 78.5 -11t67.5 -34.5t47 -56.5t17 -76q0 -33 -13 -64.5t-38.5 -57t-62.5 -41t-82 -15.5q-109 0 -168 71.5t-59 200.5z" />
<glyph unicode="7" horiz-adv-x="1394" d="M100 1038h789l-608 -1038h481l536 1079v287h-1198v-328z" />
<glyph unicode="8" horiz-adv-x="1366" d="M86 356q0 -102 47 -177t130 -124t194.5 -72.5t240.5 -23.5t241 23.5t195 72.5t130 124t47 177q0 53 -22.5 108.5t-62.5 102.5t-96.5 84t-121.5 54q123 29 201.5 116.5t78.5 208.5q0 90 -45 161t-125 119t-187.5 72.5t-232.5 24.5t-232.5 -24.5t-187 -72.5t-124.5 -119 t-45 -161q0 -123 77.5 -210t200.5 -115q-66 -16 -121 -53.5t-95 -84.5t-62.5 -102t-22.5 -109zM498 406q0 35 18.5 62.5t47 49t64.5 34.5t70 19q35 -6 71 -19t64.5 -34.5t47 -49t18.5 -62.5q0 -23 -10 -45.5t-34 -43t-61.5 -33t-95.5 -12.5q-57 0 -95 12.5t-61.5 33 t-33.5 43t-10 45.5zM518 958q0 35 16.5 60.5t42 42t58.5 24t63 7.5q31 0 63 -7.5t57.5 -24t42 -42t16.5 -60.5q0 -29 -16.5 -51t-42 -40.5t-57.5 -32t-63 -19.5q-31 6 -62.5 19.5t-57 32t-43 41t-17.5 50.5z" />
<glyph unicode="9" horiz-adv-x="1394" d="M61 899q0 -104 41 -189t110 -146.5t160 -94.5t191 -33q109 0 194 34t144 116q0 -74 -28.5 -129.5t-74.5 -91t-103.5 -54t-114.5 -18.5q-80 0 -151 21.5t-120 64.5l-174 -303q88 -57 205 -87t240 -30q168 0 305 51t233 145.5t148.5 227.5t52.5 299t-43 299t-125 228.5 t-202 146.5t-273 51q-104 0 -214 -28.5t-199 -90t-145.5 -158t-56.5 -231.5zM479 897q0 31 13.5 61.5t39 56t61.5 41t83 15.5q109 0 168 -69.5t59 -198.5q-29 -39 -87 -62.5t-126 -23.5q-41 0 -79 12t-67.5 34.5t-47 56.5t-17.5 77z" />
<glyph unicode=":" d="M70 207q0 -45 17 -85t47 -68.5t69 -46t84 -17.5t85 17.5t69.5 46t47 68.5t17.5 85t-17.5 85t-47 68.5t-69.5 46t-85 17.5t-84 -17.5t-69 -46t-47 -68.5t-17 -85zM70 786q0 -45 17 -84.5t47 -68.5t70 -46.5t85 -17.5t84 17.5t68.5 46.5t47 68.5t17.5 84.5t-17.5 85t-47 69 t-68.5 46.5t-84 17.5t-85 -17.5t-70 -46.5t-47 -69t-17 -85z" />
<glyph unicode=";" d="M70 207q0 -61 35.5 -109.5t80.5 -70.5q20 -10 50 -16.5t57 -2.5q-6 -27 -27.5 -55.5t-49.5 -53t-56.5 -43t-48.5 -24.5l151 -121q129 92 186.5 210t57.5 253q0 78 -22.5 126t-56.5 75.5t-72 38t-68 10.5q-45 0 -84 -17.5t-69 -46t-47 -68.5t-17 -85zM70 786 q0 -45 17 -84.5t47 -68.5t70 -46.5t85 -17.5t84 17.5t68.5 46.5t47 68.5t17.5 84.5t-17.5 85t-47 69t-68.5 46.5t-84 17.5t-85 -17.5t-70 -46.5t-47 -69t-17 -85z" />
<glyph unicode="&#x3c;" horiz-adv-x="1046" d="M59 362l928 -389v256l-686 265l686 268v256l-928 -389v-267z" />
<glyph unicode="=" horiz-adv-x="1046" d="M59 207h928v215h-928v-215zM59 582h928v215h-928v-215z" />
<glyph unicode="&#x3e;" horiz-adv-x="1046" d="M59 -27l928 392v264l-928 389v-256l684 -268l-684 -265v-256z" />
<glyph unicode="?" horiz-adv-x="874" d="M0 1270l190 -242q41 41 87.5 59.5t91.5 18.5q66 0 88 -19.5t22 -48.5q0 -31 -31.5 -61.5t-103.5 -75.5q-55 -35 -90 -89t-44 -114.5t11.5 -122t77.5 -112.5l272 125q-6 8 -17 25.5t-15 39t3 44t38 40.5q51 31 95 61.5t75.5 69.5t50 86.5t18.5 110.5q0 74 -30.5 137.5 t-87 108.5t-133 70.5t-169.5 25.5q-129 0 -221 -36t-178 -101zM182 209q0 -47 17.5 -87t47 -68.5t69.5 -46t85 -17.5t84 17.5t69 46t47 68.5t17 87q0 45 -17 84t-47 67.5t-69 46t-84 17.5t-85 -17.5t-69.5 -46t-47 -67.5t-17.5 -84z" />
<glyph unicode="@" horiz-adv-x="1601" d="M76 684q-18 -152 24.5 -284t129.5 -230t213 -154.5t278 -56.5q115 0 222.5 34t203.5 95l-49 70q-84 -53 -176.5 -82t-190.5 -29q-133 0 -242.5 50t-186.5 136t-113.5 202t-20.5 249q14 131 77.5 247t160 202t217 136t254.5 50q131 0 240.5 -50t186 -136t112.5 -202 t22 -247q-10 -96 -35 -145.5t-50.5 -68.5t-49.5 -19h-31q-35 0 -60.5 35.5t-11.5 97.5l111 518h-324l-10 -55q-29 61 -85 87.5t-134 26.5q-80 0 -156 -30.5t-139.5 -89t-111.5 -143.5t-70 -193q-25 -111 -12.5 -197t51 -143.5t102 -87t141.5 -29.5t143.5 26.5t124.5 87.5 q20 -41 51 -68.5t66 -44t73 -23.5t73 -7q70 0 143.5 38t136 102.5t105.5 148.5t49 176q10 150 -33 282t-128 230t-209 154.5t-273 56.5q-150 0 -289 -56.5t-248.5 -154.5t-182.5 -230t-89 -282zM610 705q23 98 80.5 149t124.5 51q31 0 69 -8t54 -37h-2l-66 -313 q-29 -29 -69.5 -37t-73.5 -8q-66 0 -101.5 53t-15.5 150z" />
<glyph unicode="A" horiz-adv-x="1529" d="M0 0h469l66 215h456l68 -215h469l-504 1366h-520zM623 500l141 461l141 -461h-282z" />
<glyph unicode="B" horiz-adv-x="1447" d="M111 0h858q102 0 178 30.5t126 83t74.5 119t24.5 138.5q0 66 -19.5 123t-55 101t-83 72.5t-102.5 37.5q100 23 167 103.5t67 209.5q0 59 -24 121.5t-73 113t-125.5 82t-183.5 31.5h-829v-1366zM524 303v246h301q45 0 86 -26.5t41 -92.5t-41 -96.5t-86 -30.5h-301z M524 831v230l287 -2q45 0 80 -30t35 -83t-35 -84t-80 -31h-287z" />
<glyph unicode="C" horiz-adv-x="1472" d="M76 682q0 -158 57 -290t157.5 -228t239 -150.5t297.5 -54.5q135 0 237.5 32t177.5 84t125 118.5t81 136.5l-340 157q-37 -92 -109.5 -143t-171.5 -51q-68 0 -127 24.5t-105 73.5t-72.5 122t-26.5 169t26.5 169t72.5 122t105.5 74.5t126.5 25.5q98 0 171 -52t110 -144 l340 161q-31 68 -81 134.5t-126 118.5t-177 84t-237 32q-160 0 -298 -54.5t-238.5 -150.5t-157.5 -229t-57 -291z" />
<glyph unicode="D" horiz-adv-x="1531" d="M111 0h612q160 0 297 45t236.5 132t155.5 214t56 291h2q0 164 -57 291t-156.5 215t-236.5 133t-299 45h-610v-1366zM522 326v714l199 -2q82 0 143.5 -27.5t102.5 -75.5t60.5 -113.5t19.5 -141.5q0 -72 -23 -135.5t-64.5 -112.5t-102 -77.5t-138.5 -28.5h-197z" />
<glyph unicode="E" horiz-adv-x="1220" d="M111 0h1036v328h-623v211l609 -2v307h-609v196l623 -2v328h-1036v-1366z" />
<glyph unicode="F" horiz-adv-x="1212" d="M111 0h413v539l609 -2v307h-609v196l623 -2v2v326h-1036v-1366z" />
<glyph unicode="G" horiz-adv-x="1513" d="M76 682q0 -164 59.5 -297t161.5 -228.5t238.5 -146.5t291.5 -51q203 0 356.5 75t268.5 202v532h-666v-295h254l-2 -115q-31 -27 -91 -46t-120 -19q-68 0 -127 24.5t-104 73.5t-71.5 122t-26.5 169t26.5 169t71.5 122t104.5 74.5t126.5 25.5q59 0 105.5 -17.5t81.5 -46 t59.5 -63.5t38.5 -69l340 161q-29 68 -80 134.5t-128 118.5t-180 84t-237 32q-156 0 -292 -51t-238 -146.5t-161.5 -229.5t-59.5 -298z" />
<glyph unicode="H" horiz-adv-x="1538" d="M111 0h413v522h490v-522h413v1366h-413v-483h-490v483h-413v-1366z" />
<glyph unicode="I" horiz-adv-x="634" d="M111 0h413v1366h-413v-1366z" />
<glyph unicode="J" horiz-adv-x="1019" d="M0 70q80 -61 180.5 -86t200.5 -25q119 0 216 29.5t167 91t107.5 157t37.5 226.5v903h-413l2 -909q0 -74 -44 -119t-122 -45q-59 0 -106.5 18.5t-78.5 50.5z" />
<glyph unicode="K" horiz-adv-x="1411" d="M111 0h413v379l76 102l307 -481h504l-539 731l517 635h-506l-359 -512v512h-413v-1366z" />
<glyph unicode="L" horiz-adv-x="1079" d="M111 0h931v326h-518v1040h-413v-1366z" />
<glyph unicode="M" horiz-adv-x="1843" d="M111 0h413v821l305 -821h185l311 821v-821h408v1366h-547l-264 -721l-258 721h-553v-1366z" />
<glyph unicode="N" horiz-adv-x="1536" d="M111 0h411v776l506 -776h397v1366h-413v-737l-475 737h-426v-1366z" />
<glyph unicode="O" horiz-adv-x="1642" d="M76 682q0 -158 57 -290t157.5 -228t237 -150.5t295.5 -54.5q158 0 294 54.5t236.5 150.5t158 228t57.5 290t-57.5 291t-158 229t-236.5 150.5t-294 54.5q-160 0 -296 -54.5t-236.5 -150.5t-157.5 -229t-57 -291zM496 682q0 78 19.5 148.5t60 125t102 86t145.5 31.5 q82 0 143.5 -31.5t101.5 -86t60.5 -125t20.5 -148.5t-20.5 -148.5t-60.5 -124t-101.5 -85t-143.5 -31.5q-84 0 -145.5 31.5t-102 85t-60 124t-19.5 148.5z" />
<glyph unicode="P" horiz-adv-x="1368" d="M111 0h413v487l316 -2q127 0 220 35t153.5 96.5t89 141.5t28.5 168t-32.5 168t-96 140t-155 96t-207.5 36h-729v-1366zM524 780v287h260q45 0 86 -39t41 -102q0 -66 -41 -106t-86 -40h-260z" />
<glyph unicode="Q" horiz-adv-x="1642" d="M76 682q0 -158 57 -290t157.5 -228t237 -150.5t295.5 -54.5q225 0 398 107l131 -138l198 222l-120 102q139 180 139 430q0 158 -57.5 291t-158 229t-236.5 150.5t-294 54.5q-160 0 -296 -54.5t-236.5 -150.5t-157.5 -229t-57 -291zM496 682q0 78 19.5 148.5t60 125 t102 86t145.5 31.5q82 0 143.5 -31.5t101.5 -86t60.5 -125t20.5 -148.5q0 -88 -23 -156l-122 119l-199 -221l137 -113q-27 -8 -57.5 -13t-61.5 -5q-84 0 -145.5 31.5t-102 85t-60 124t-19.5 148.5z" />
<glyph unicode="R" horiz-adv-x="1402" d="M111 0h413v487l131 -2l207 -485h471l-274 543q16 8 60 31.5t91 70.5t84 120t37 177q0 86 -32.5 164t-96 135t-155 91t-207.5 34h-729v-1366zM524 780v287h260q51 0 89 -42t38 -99q0 -63 -38.5 -104.5t-88.5 -41.5h-260z" />
<glyph unicode="S" horiz-adv-x="1366" d="M53 188q33 -35 82 -74.5t123 -73.5t172 -57.5t229 -23.5q150 0 267.5 34t198.5 94t123 145.5t42 189.5q0 115 -42 193.5t-116.5 132t-180 85t-230.5 54.5q-94 16 -141.5 39.5t-47.5 70.5q0 57 48.5 80t130.5 23q41 0 87 -10.5t89 -29t81 -43t62 -50.5l215 235 q-35 37 -84 74t-119.5 66.5t-165 47t-217.5 17.5q-141 0 -249.5 -40t-182 -103.5t-112.5 -142.5t-39 -154q0 -76 23.5 -149t83 -135t164 -110.5t263.5 -74.5q129 -20 177.5 -51t48.5 -82q0 -47 -54.5 -74t-142.5 -27q-59 0 -118.5 21.5t-110 51.5t-88 61.5t-54.5 54.5z" />
<glyph unicode="T" horiz-adv-x="1138" d="M37 1038l325 2v-1040h414v1040l324 -2v2v326h-1063v-328z" />
<glyph unicode="U" horiz-adv-x="1583" d="M111 557q0 -127 50 -236.5t141 -189.5t216 -126t275 -46t274.5 46t214.5 127t140.5 190.5t50.5 236.5v807h-420v-829q0 -49 -19.5 -93.5t-55.5 -78t-83 -53t-102 -19.5t-103.5 19.5t-84.5 53t-55.5 77.5t-19.5 94v829h-419v-809z" />
<glyph unicode="V" horiz-adv-x="1527" d="M0 1366l504 -1366h520l504 1366h-469l-295 -920l-295 920h-469z" />
<glyph unicode="W" horiz-adv-x="2000" d="M0 1366l391 -1366h432l178 774l175 -774h434l391 1366h-465l-176 -836l-207 836h-309l-205 -836l-176 836h-463z" />
<glyph unicode="X" horiz-adv-x="1474" d="M0 0h487l250 418l250 -418h488l-457 702l426 664h-488l-219 -389l-221 389h-485l426 -666z" />
<glyph unicode="Y" horiz-adv-x="1435" d="M0 1366l514 -823v-543h408v543l514 823h-463l-252 -461l-254 461h-467z" />
<glyph unicode="Z" horiz-adv-x="1232" d="M76 0h1081v326h-579l565 714v326h-1067v-328l549 2l-549 -712v-328z" />
<glyph unicode="[" horiz-adv-x="649" d="M111 -205h501v232h-245v1312h245v234h-501v-1778z" />
<glyph unicode="\" horiz-adv-x="741" d="M0 1407l485 -1448h256l-485 1448h-256z" />
<glyph unicode="]" horiz-adv-x="649" d="M37 27v-232h502v1778h-502v-234h246v-1312h-246z" />
<glyph unicode="^" horiz-adv-x="925" d="M43 682h256l162 440l164 -440h258l-287 684h-264z" />
<glyph unicode="_" horiz-adv-x="1394" d="M-6 -82v-113h1407v113h-1407z" />
<glyph unicode="`" horiz-adv-x="526" d="M0 1434l223 -308h303l-233 308h-293z" />
<glyph unicode="a" horiz-adv-x="1230" d="M70 303q0 -90 37.5 -153.5t97 -102.5t131.5 -56.5t139 -17.5q37 0 80 9.5t83 26t72.5 38t47.5 47.5v-94h368v604q0 123 -44 204t-114.5 128t-160.5 65.5t-182 18.5q-47 0 -110.5 -7t-132.5 -24.5t-135.5 -49.5t-117.5 -81l127 -201q55 57 137 87t164 30q92 0 146.5 -46 t54.5 -110v-92q-14 25 -46 45.5t-73 35t-84 21.5t-80 7q-68 0 -139.5 -15.5t-131 -52.5t-97 -101.5t-37.5 -162.5zM434 319q0 39 17.5 64t42 40t53 21.5t51.5 6.5q43 0 92 -17.5t68 -50.5v-131q-18 -33 -67.5 -49.5t-92.5 -16.5q-23 0 -51.5 6.5t-53 21.5t-42 41t-17.5 64z " />
<glyph unicode="b" horiz-adv-x="1255" d="M104 0h369v104q49 -72 119 -101.5t160 -29.5q92 0 170.5 34t137 99.5t92.5 164t34 225.5t-34 224t-92.5 163.5t-137 100.5t-170.5 34q-90 0 -161 -31t-118 -102v481h-369v-1366zM473 317v355q27 35 72 45t80 10q74 0 129 -60t55 -171t-55.5 -172.5t-128.5 -61.5 q-35 0 -81 10.5t-71 44.5z" />
<glyph unicode="c" horiz-adv-x="1085" d="M70 496q0 -119 43 -215.5t117.5 -165t176 -105.5t218.5 -37q84 0 152.5 17.5t120.5 45t89 61.5t57 65l-237 207q-16 -41 -61.5 -72t-104.5 -31q-78 0 -136.5 58.5t-58.5 171.5q0 111 58.5 169t136.5 58q59 0 104.5 -29.5t61.5 -72.5l237 206q-20 31 -57 65t-89 61.5 t-120.5 46t-152.5 18.5q-117 0 -218.5 -38t-176 -106.5t-117.5 -165t-43 -212.5z" />
<glyph unicode="d" horiz-adv-x="1255" d="M70 496q0 -127 34.5 -225.5t94 -164t138.5 -99.5t169 -34q88 0 157.5 30t120.5 101l-2 -104h371l-2 1366h-369l2 -481q-47 72 -118.5 102.5t-159.5 30.5q-92 0 -171 -36t-138.5 -102.5t-93 -164t-33.5 -219.5zM446 496q0 111 54.5 171t130.5 60q37 0 82 -10t71 -45 l-2 -355q-25 -35 -69.5 -45t-81.5 -10q-76 0 -130.5 61.5t-54.5 172.5z" />
<glyph unicode="e" horiz-adv-x="1191" d="M70 496q0 -123 43 -219.5t116.5 -164t174 -103.5t217.5 -36q45 0 103 9.5t115.5 28t111 47t89.5 67.5l-157 201q-18 -16 -47 -29.5t-61 -25t-61.5 -17.5t-49.5 -6q-98 0 -158 42t-80 99h696v107q0 115 -40 211t-108.5 164.5t-162.5 107.5t-203 39q-121 0 -219 -41 t-170 -112.5t-110.5 -167t-38.5 -201.5zM422 590q4 31 16.5 60.5t36 53t57 38t82.5 14.5q51 0 86 -15.5t58.5 -39t35 -53t15.5 -58.5h-387z" />
<glyph unicode="f" horiz-adv-x="677" d="M-47 731h164v-731h368v731h201v258h-201v51q0 35 35 61.5t70 26.5q76 0 112 -59l148 203q-43 57 -130 92t-198 35q-82 0 -155.5 -25.5t-129 -73t-88 -112t-32.5 -139.5v-60h-164v-258z" />
<glyph unicode="g" horiz-adv-x="1253" d="M70 522q0 -127 34.5 -220t93 -154.5t137.5 -91t169 -29.5t158.5 30.5t119.5 102.5v-105q0 -53 -23.5 -90t-58 -59.5t-74.5 -32.5t-73 -10q-80 0 -161 35.5t-134 99.5l-156 -252q96 -82 219 -126t283 -44q92 0 189.5 23.5t176.5 86t130 174t51 287.5v842h-369v-104 q-47 72 -117.5 102.5t-160.5 30.5q-92 0 -171 -31t-137.5 -93.5t-92 -155.5t-33.5 -216zM446 522q0 109 54.5 157t130.5 48q35 0 80 -9t71 -44v-303q-27 -35 -71.5 -44.5t-79.5 -9.5q-76 0 -130.5 48.5t-54.5 156.5z" />
<glyph unicode="h" horiz-adv-x="1245" d="M104 0h369v631q23 27 58.5 52.5t99.5 25.5q66 0 103.5 -32t37.5 -110v-88v-117v-129v-116q0 -51 1 -84l1 -33h369l-1 76t-1 184v232v215q0 63 -19.5 120.5t-59.5 99.5t-101.5 66.5t-147.5 24.5q-131 0 -214 -44t-126 -93v485h-369v-1366z" />
<glyph unicode="i" d="M82 1268q0 -43 16.5 -81t44 -65.5t65.5 -44t81 -16.5t81 16.5t65.5 44t44 65.5t16.5 81t-16.5 80.5t-44 65.5t-65.5 44.5t-81 16.5t-81 -16.5t-65.5 -44.5t-44 -65.5t-16.5 -80.5zM104 0h369v989h-369v-989z" />
<glyph unicode="j" d="M-283 -356q31 -18 58.5 -31.5t61.5 -21t76 -11.5t97 -4q129 0 217 37t142.5 96.5t79 135t24.5 155.5v989h-369v-964q0 -49 -32.5 -82t-91.5 -33q-43 0 -76 8t-64 31zM82 1268q0 -43 16.5 -81t44 -65.5t65.5 -44t81 -16.5t81 16.5t65.5 44t44 65.5t16.5 81t-16.5 80.5 t-44 65.5t-65.5 44.5t-81 16.5t-81 -16.5t-65.5 -44.5t-44 -65.5t-16.5 -80.5z" />
<glyph unicode="k" horiz-adv-x="1132" d="M104 0h369v199l72 96l137 -295h453l-353 559l330 430h-455l-184 -319v696h-369v-1366z" />
<glyph unicode="l" d="M104 0h367v1366h-367v-1366z" />
<glyph unicode="m" horiz-adv-x="1839" d="M104 0h369v631q18 23 54 50.5t96 27.5q63 0 87.5 -33t24.5 -78v-598h369v631q18 23 54 50.5t97 27.5t86 -33t25 -78v-90v-125v-135v-123t1 -90l1 -35h369l-1 36t-1 95v137v156v158v139q0 154 -83 225.5t-220 71.5q-59 0 -113.5 -15.5t-98.5 -40t-79 -55t-56 -63.5 q-35 92 -107.5 133t-176.5 41q-59 0 -112.5 -13.5t-95.5 -34t-73 -45t-47 -44.5v108h-369v-989z" />
<glyph unicode="n" horiz-adv-x="1245" d="M104 0h369v631q23 27 58.5 52.5t99.5 25.5q66 0 103.5 -32t37.5 -110v-88v-117v-129v-116q0 -51 1 -84l1 -33h369l-1 76t-1 184v232v215q0 63 -19.5 120.5t-59.5 99.5t-101.5 66.5t-147.5 24.5q-131 0 -214 -44t-126 -93v108h-369v-989z" />
<glyph unicode="o" horiz-adv-x="1251" d="M70 496q0 -104 37.5 -198.5t108.5 -166.5t174.5 -115t234.5 -43t235.5 43t175 115t108.5 166.5t38 198.5t-38 198t-108.5 166t-175 115t-235.5 43t-234.5 -43t-174.5 -115t-108.5 -166t-37.5 -198zM449 496q0 113 45 170t131 57t132 -57t46 -170q0 -115 -46 -172.5 t-132 -57.5t-131 57.5t-45 172.5z" />
<glyph unicode="p" horiz-adv-x="1255" d="M104 -395h369v499q49 -72 119 -101.5t160 -29.5q92 0 170.5 34t137 99.5t92.5 164t34 225.5t-34 224t-92.5 163.5t-137 100.5t-170.5 34q-90 0 -161 -31t-118 -102v104h-369v-1384zM473 317v355q27 35 72 45t80 10q74 0 129 -60t55 -171t-55.5 -172.5t-128.5 -61.5 q-35 0 -81 10.5t-71 44.5z" />
<glyph unicode="q" horiz-adv-x="1255" d="M70 496q0 -127 33.5 -225.5t92 -164t138.5 -99.5t172 -34q88 0 157.5 30t120.5 101l-2 -499h371l-2 1384h-369l2 -104q-47 72 -118.5 102.5t-159.5 30.5q-92 0 -172 -34t-138.5 -100.5t-92 -163.5t-33.5 -224zM446 496q0 111 54.5 171t130.5 60q37 0 82 -10t71 -45 l-2 -355q-25 -35 -69.5 -45t-81.5 -10q-76 0 -130.5 61.5t-54.5 172.5z" />
<glyph unicode="r" horiz-adv-x="798" d="M104 0h369v631q23 27 64 43t86 22q34 4 66 4h21q42 -2 66 -10v328q-43 0 -87 -11.5t-84 -31t-74.5 -44t-57.5 -50.5v108h-369v-989z" />
<glyph unicode="s" horiz-adv-x="1064" d="M27 147q37 -31 85 -61.5t108.5 -56t136 -41t169.5 -15.5q111 0 198 26t147.5 72t92 108t31.5 136q0 145 -95 230.5t-314 107.5q-86 10 -123 20.5t-37 51.5q0 35 38 45t89 10q39 0 78 -9t72.5 -23.5t59 -32t38.5 -33.5l133 203q-61 53 -163.5 93t-264.5 40 q-106 0 -188 -27.5t-138.5 -72t-85 -101.5t-28.5 -117q0 -88 29.5 -149.5t82.5 -101t124 -61t155 -28.5q74 -6 113.5 -23.5t37.5 -45.5q2 -29 -26.5 -43.5t-96.5 -14.5q-35 0 -76.5 11.5t-82.5 31t-77 44t-59 51.5z" />
<glyph unicode="t" horiz-adv-x="813" d="M23 731h163v-444q0 -156 87 -239t253 -83q68 0 118 8.5t85 20.5t58.5 26.5t37.5 26.5l-94 258q-6 -6 -26.5 -19.5t-57.5 -13.5q-92 0 -92 93v366h201v258h-201v271h-369v-271h-163v-258z" />
<glyph unicode="u" horiz-adv-x="1245" d="M104 283q0 -63 18.5 -120t58.5 -98.5t102.5 -66.5t148.5 -25q66 0 119 12.5t95 33t73 44t53 48.5v-111h369v989h-369v-629q-23 -27 -58.5 -52t-97.5 -25q-68 0 -105.5 31.5t-37.5 107.5v567h-369v-706z" />
<glyph unicode="v" horiz-adv-x="1157" d="M0 989l383 -989h391l383 989h-389l-190 -627l-189 627h-389z" />
<glyph unicode="w" horiz-adv-x="1697" d="M0 989l287 -989h401l160 553l162 -553h401l287 989h-381l-131 -586l-172 586h-330l-174 -586l-131 586h-379z" />
<glyph unicode="x" horiz-adv-x="1116" d="M0 0h401l158 303l154 -303h403l-325 508l303 481h-404l-133 -272l-133 272h-404l304 -481z" />
<glyph unicode="y" horiz-adv-x="1157" d="M0 989l389 -1005q0 2 -3 -6.5t-7 -18.5q-16 -35 -62.5 -43t-126.5 -8v-332q94 0 174 4t145.5 33t120 89t97.5 175l430 1112h-389l-190 -627l-189 627h-389z" />
<glyph unicode="z" horiz-adv-x="999" d="M70 0h860v262l-424 -2l416 471v258h-852v-258h407l-407 -461v-270z" />
<glyph unicode="{" horiz-adv-x="649" d="M4 780l2 -192q53 0 79 -37t26 -94v-285q0 -78 26.5 -145.5t75.5 -119.5t119.5 -82t156.5 -30h123v232h-123q-51 0 -86.5 39.5t-35.5 105.5v326q0 66 -21.5 115t-75.5 71q53 23 75 72t22 114v324q0 68 35.5 106.5t86.5 38.5h123v234h-123q-86 0 -156.5 -31t-119.5 -82 t-75.5 -120.5t-26.5 -145.5v-283q0 -57 -27 -94t-80 -37z" />
<glyph unicode="|" horiz-adv-x="477" d="M111 -41h256v1448h-256v-1448z" />
<glyph unicode="}" horiz-adv-x="649" d="M37 27v-232h123q88 0 157.5 30t118.5 82t76 119.5t27 145.5v285q0 57 26.5 94t79.5 37v192q-53 0 -79.5 37t-26.5 94v283q0 76 -27 145.5t-76 120.5t-118.5 82t-157.5 31h-123v-234h123q53 0 88 -38.5t35 -106.5v-324q0 -66 22.5 -114.5t73.5 -71.5q-51 -23 -73.5 -72 t-22.5 -114v-326q0 -66 -35 -105.5t-88 -39.5h-123z" />
<glyph unicode="~" horiz-adv-x="1142" d="M51 930l201 -47q23 141 54.5 216t72.5 75q20 0 34.5 -10.5t29 -30t30.5 -47t39 -64.5q43 -72 103.5 -116t164.5 -44q61 0 115.5 43t96.5 108.5t68 146.5t32 157l-197 49q-23 -143 -55.5 -218t-73.5 -75t-65.5 39t-69.5 113q-43 70 -102.5 115.5t-166.5 45.5 q-61 0 -115 -43t-95 -109.5t-68 -147t-33 -156.5z" />
<glyph unicode="&#xa1;" d="M68 -367l53 856h332l55 -856h-440zM70 791q0 45 17 84.5t47 68.5t69 46.5t84 17.5t85 -17.5t69.5 -46.5t47 -68.5t17.5 -84.5t-17.5 -85t-47 -69t-69.5 -46.5t-85 -17.5t-84 17.5t-69 46.5t-47 69t-17 85z" />
<glyph unicode="&#xa2;" horiz-adv-x="1085" d="M70 496q0 -102 31.5 -187.5t88 -151t135 -109.5t171.5 -62v-193h258v193q115 23 186 75t104 101l-200 198q-10 -27 -38 -53t-63 -47v469q35 -20 63 -47t38 -53l200 200q-33 47 -104.5 99.5t-185.5 75.5v167h-258v-167q-92 -18 -171 -62.5t-135.5 -110t-88 -150.5 t-31.5 -185zM389 496q0 86 34 141t83 86v-457q-49 31 -83 87.5t-34 142.5z" />
<glyph unicode="&#xa3;" horiz-adv-x="1177" d="M53 467h215v-14q0 -31 -14 -58.5t-39 -52.5t-56.5 -46.5t-64.5 -39.5l135 -270q16 10 43 23.5t57.5 24.5t64.5 19t69 8q33 0 71.5 -14t85 -30.5t100.5 -31t118 -14.5q104 0 185 25t142 86l-157 303q-25 -41 -67 -61.5t-89 -20.5q-31 0 -56.5 10.5t-52 21.5t-57.5 21.5 t-68 10.5q-20 0 -43.5 -3.5t-50.5 -13.5q18 14 40 36t38 54q4 6 6 13.5t6 13.5h244v223h-237q-10 37 -22.5 62.5t-25 54.5t-20.5 64.5t-8 93.5q0 53 41 95t102 42q55 0 86 -31t57 -92l328 154q-41 76 -87 127t-106.5 81.5t-140.5 44t-186 13.5q-78 0 -173 -31t-180 -89 t-142.5 -145t-57.5 -200q0 -78 25.5 -135.5t58.5 -108.5h-117v-223z" />
<glyph unicode="&#xa4;" horiz-adv-x="1005" d="M0 322l141 -142l123 123q53 -33 112.5 -51.5t125.5 -18.5t126 18.5t113 51.5l121 -123l144 142l-123 122q68 109 67 238q0 66 -17.5 126t-49.5 112l123 122l-144 144l-121 -123q-109 68 -239 67q-129 0 -238 -67l-123 123l-141 -144l123 -122q-33 -51 -51.5 -111.5 t-18.5 -126.5t18.5 -125t51.5 -113zM258 682q0 51 19.5 95t52 78t77 53.5t95.5 19.5t95 -19.5t78 -53.5t53.5 -78t19.5 -95t-19.5 -95t-53.5 -77t-78 -52.5t-95 -19.5t-95.5 19.5t-77 52.5t-52 77t-19.5 95z" />
<glyph unicode="&#xa5;" horiz-adv-x="1435" d="M0 1366l319 -512h-169v-215h305l59 -96v-64h-364v-215h364v-264h408v264h370v215h-370v64l59 96h311v215h-176l320 512h-463l-252 -461l-254 461h-467z" />
<glyph unicode="&#xa6;" horiz-adv-x="477" d="M111 -41h256v653h-256v-653zM111 752h256v655h-256v-655z" />
<glyph unicode="&#xa7;" horiz-adv-x="1179" d="M57 473q0 -117 49.5 -203t121 -144t151.5 -92t139 -46q74 -16 115 -28.5t41 -41.5t-29 -43t-96 -14q-37 0 -79 11t-82 30.5t-76 44t-58 51.5l-164 -221q37 -31 84 -62.5t107.5 -57.5t136.5 -41t170 -15q111 0 197.5 25.5t148 70.5t93.5 108.5t32 137.5q0 182 -150 266 q92 59 152.5 159.5t60.5 225.5q0 131 -51 215t-125 134t-155.5 72.5t-141.5 33.5q-86 14 -124 22t-38 49q0 35 38 44.5t89 9.5q39 0 79 -9.5t74 -23t58.5 -30.5t36.5 -34l135 201q-61 55 -164.5 95t-263.5 40q-106 0 -189 -27.5t-139.5 -71.5t-85 -101.5t-28.5 -114.5 q0 -100 37 -165t100 -106q-86 -53 -146.5 -142t-60.5 -212zM365 528q0 160 143 228h10q80 -8 135.5 -33t90 -61.5t50 -83t15.5 -95.5q0 -72 -36 -121t-101 -83l-23 2q-86 8 -141 34.5t-87 63.5t-44 77t-12 72z" />
<glyph unicode="&#xa8;" horiz-adv-x="864" d="M35 1298q0 -68 48 -114.5t116 -46.5t114.5 46.5t46.5 114.5t-47 116t-114 48q-68 0 -116 -48t-48 -116zM504 1298q0 -68 47 -114.5t115 -46.5t115.5 46.5t47.5 114.5t-48 116t-115 48q-68 0 -115 -48t-47 -116z" />
<glyph unicode="&#xa9;" horiz-adv-x="1593" d="M72 682q0 -150 57 -282t155.5 -230t230.5 -155.5t282 -57.5t281.5 57.5t230 155.5t156 230t57.5 282t-57.5 282t-156 230t-230.5 155.5t-281 57.5q-150 0 -282 -57.5t-230.5 -155.5t-155.5 -230.5t-57 -281.5zM162 682q0 131 50 246.5t136 202t202 136.5t247 50 t247.5 -50t202.5 -136.5t136.5 -202t50.5 -246.5t-50.5 -247t-136.5 -202t-202.5 -136t-247.5 -50t-247 50t-202 136t-136 202t-50 247zM358 682q0 -96 35 -177t94.5 -139.5t139.5 -91t170 -32.5q98 0 180 40.5t139 106.5l-80 76q-41 -55 -102.5 -88t-136.5 -33 q-68 0 -126.5 25.5t-101.5 69.5t-68.5 106.5t-25.5 136.5t25.5 136.5t68.5 107.5t101.5 70.5t126.5 25.5q74 0 135 -33t102 -88l78 78q-55 66 -136 103.5t-179 37.5q-90 0 -170 -32.5t-139.5 -91t-94.5 -138.5t-35 -176z" />
<glyph unicode="&#xaa;" horiz-adv-x="673" d="M80 991q0 53 20.5 89t53 56.5t72.5 29t77 8.5q39 0 88 -15.5t66 -44.5v51q0 35 -30 60.5t-81 25.5q-43 0 -88 -17t-76 -48l-69 110q27 27 63.5 44.5t74.5 26.5t73.5 13t60.5 4q51 0 100.5 -10t88 -35.5t62 -69.5t23.5 -112v-332h-202v52q-16 -29 -64.5 -47.5t-89.5 -18.5 q-37 0 -77 9t-72.5 30.5t-53 56.5t-20.5 84zM117 631h540v82h-540v-82zM279 999q0 -41 32.5 -56t59.5 -15q23 0 49.5 9.5t36.5 27.5v71q-10 16 -37 26.5t-49 10.5q-27 0 -59.5 -15.5t-32.5 -58.5z" />
<glyph unicode="&#xab;" horiz-adv-x="1146" d="M0 498l328 -369h327l-327 369l327 362h-327zM492 498l327 -369h328l-328 369l328 362h-328z" />
<glyph unicode="&#xac;" horiz-adv-x="1191" d="M96 432h549l-24 -266l575 420l-575 418l24 -265h-549v-307z" />
<glyph unicode="&#xad;" horiz-adv-x="1046" d="M59 393l928 2v215l-928 -2v-215z" />
<glyph unicode="&#xae;" horiz-adv-x="1593" d="M72 682q0 -150 57 -282t155.5 -230t230.5 -155.5t282 -57.5t281.5 57.5t230 155.5t156 230t57.5 282t-57.5 282t-156 230t-230.5 155.5t-281 57.5q-150 0 -282 -57.5t-230.5 -155.5t-155.5 -230.5t-57 -281.5zM162 682q0 131 50 246.5t136 202t202 136.5t247 50 t247.5 -50t202.5 -136.5t136.5 -202t50.5 -246.5t-50.5 -247t-136.5 -202t-202.5 -136t-247.5 -50t-247 50t-202 136t-136 202t-50 247zM516 1098l2 -830h111v328h147l215 -328h142l-224 330q18 0 53 12.5t71 42t61.5 76.5t25.5 117q0 57 -21.5 103t-58 79t-85 51.5 t-99.5 18.5h-340zM629 696v303l227 -2q27 0 53.5 -11t47 -30.5t34 -48t13.5 -61.5t-13.5 -60.5t-34 -47t-47 -31t-53.5 -11.5h-227z" />
<glyph unicode="&#xaf;" horiz-adv-x="811" d="M33 1176h743v221h-743v-221z" />
<glyph unicode="&#xb0;" horiz-adv-x="675" d="M35 1102q0 -63 23.5 -118.5t64.5 -96.5t96 -64.5t119 -23.5q63 0 118.5 23.5t96.5 64.5t65.5 96.5t24.5 118.5t-24.5 118.5t-65.5 96.5t-96.5 65.5t-118.5 24.5t-118.5 -24.5t-96.5 -65.5t-64.5 -96.5t-23.5 -118.5zM219 1102q0 49 35 84t84 35t84 -35t35 -84t-35 -84 t-84 -35t-84 35t-35 84z" />
<glyph unicode="&#xb1;" horiz-adv-x="985" d="M2 854l522 512h350v-1366h-409v840l-229 -230z" />
<glyph unicode="&#xb2;" horiz-adv-x="821" d="M59 1253q18 27 55.5 50.5t85.5 42t103 28.5t109 10q88 0 151.5 -20.5t104.5 -56t59 -81.5t18 -98q0 -82 -51 -145t-114 -104q-68 -45 -119 -77l-51 -32h344v-188h-670v172l58 43q59 43 194 137q90 63 131 97t41 79q0 43 -33 65.5t-88 22.5q-68 0 -120 -31.5t-81 -66.5z " />
<glyph unicode="&#xb3;" horiz-adv-x="774" d="M35 696l115 154q41 -47 100 -72.5t131 -25.5q66 0 89.5 22.5t23.5 44.5q0 49 -62.5 62.5t-191.5 5.5v184q123 -6 182 7.5t59 60.5q0 33 -25.5 47t-90.5 14q-68 0 -125.5 -30.5t-81.5 -65.5l-113 143q53 66 139 101.5t197 35.5q150 0 242 -52t92 -167q0 -72 -51.5 -120 t-118.5 -58q82 -14 132 -60t50 -124q0 -113 -89 -175.5t-257 -62.5q-119 0 -197 31t-149 100z" />
<glyph unicode="&#xb4;" horiz-adv-x="526" d="M0 1126h303l223 308h-293z" />
<glyph unicode="&#xb5;" horiz-adv-x="1538" d="M-4 862l479 -350l-182 -563l479 348l481 -348l-184 563l481 350h-594l-184 565l-182 -565h-594z" />
<glyph unicode="&#xb6;" horiz-adv-x="919" d="M55 1221q0 -74 28 -137.5t76 -111.5t111.5 -76t137.5 -28v-1073h112v1667h150v-1667h112v1778h-374q-74 0 -137.5 -27.5t-111.5 -76t-76 -112t-28 -136.5z" />
<glyph unicode="&#xb7;" d="M70 752q0 45 17 85t47 69.5t69 47t84 17.5t85 -17.5t69.5 -47t47 -69.5t17.5 -85t-17.5 -84t-47 -69t-69.5 -47t-85 -17t-84 17t-69 47t-47 69t-17 84z" />
<glyph unicode="&#xb8;" horiz-adv-x="532" d="M0 -317q27 -18 90.5 -42t171.5 -24q123 0 196.5 44t73.5 116q0 47 -22.5 79.5t-56 48t-72.5 15.5q-37 0 -68 -16l37 108l-180 11l-61 -164l133 -62q8 16 22.5 24.5t28.5 8.5t23.5 -10t9.5 -29q0 -12 -18.5 -30.5t-82.5 -18.5q-35 0 -81 19.5t-87 52.5z" />
<glyph unicode="&#xb9;" horiz-adv-x="643" d="M47 1073l297 293h199v-778h-234v479l-131 -131z" />
<glyph unicode="&#xba;" horiz-adv-x="684" d="M59 1102q0 57 20.5 108.5t59.5 91t96.5 63.5t129.5 24t129 -24t96 -63.5t59.5 -91t20.5 -108.5t-20.5 -109.5t-59.5 -91.5t-96.5 -62.5t-128.5 -23.5q-72 0 -129.5 23.5t-96.5 62.5t-59.5 91t-20.5 110zM96 631h555v82h-555v-82zM268 1102q0 -127 97 -127q98 0 98 127 q0 125 -98 125q-96 0 -97 -125z" />
<glyph unicode="&#xbb;" horiz-adv-x="1144" d="M0 129h328l327 369l-327 362h-328l328 -362zM492 129h325l328 369l-328 362h-325l327 -362z" />
<glyph unicode="&#xbc;" horiz-adv-x="1716" d="M39 1073l297 293h201v-778h-234v479l-131 -131zM221 0l875 1366h280l-872 -1366h-283zM932 147v160l309 471h324v-446h90v-185h-88v-145h-236v145h-399zM1171 332h160v243z" />
<glyph unicode="&#xbd;" horiz-adv-x="1775" d="M39 1073l297 293h201v-778h-234v479l-131 -131zM225 0l875 1366h280l-872 -1366h-283zM1004 666q18 27 55 50t85 41.5t102 29t108 10.5q88 0 150.5 -20.5t102.5 -55.5t58 -81t18 -97q0 -82 -51 -144.5t-112 -103.5q-68 -43 -119 -76l-51 -33h340v-184h-664v170l60 42 q59 42 192 134q88 63 128 97t40 79q0 41 -32 63.5t-87 22.5q-66 0 -118 -30.5t-81 -67.5z" />
<glyph unicode="&#xbe;" horiz-adv-x="1835" d="M49 696l115 154q41 -47 100.5 -72.5t130.5 -25.5q66 0 90.5 22.5t24.5 44.5q0 49 -63.5 62.5t-192.5 5.5v184q123 -6 182.5 7.5t59.5 60.5q0 33 -26 47t-91 14q-68 0 -125 -30.5t-82 -65.5l-113 143q53 66 139.5 101.5t196.5 35.5q150 0 242 -52t92 -167q0 -72 -51 -120 t-119 -58q82 -14 132 -60t50 -124q0 -113 -89 -175.5t-257 -62.5q-119 0 -196.5 31t-149.5 100zM365 0l874 1366h281l-873 -1366h-282zM1047 147v160l309 471h323v-446h90v-185h-88v-145h-237v145h-397zM1286 332h158v243z" />
<glyph unicode="&#xbf;" horiz-adv-x="874" d="M63 -66q0 63 18.5 111.5t50.5 86.5t75 69.5t94 60.5q31 18 39 41t4 45.5t-15.5 40t-17.5 25.5l273 123q55 -51 76.5 -113t12.5 -122t-45 -114.5t-91 -89.5q-72 -45 -103 -75.5t-31 -61.5q0 -29 23 -48t88 -19q45 0 90 19t86 60l193 -243q-86 -63 -179.5 -99.5 t-220.5 -36.5q-92 0 -168.5 26t-133 71t-87.5 107t-31 136zM264 793q0 45 17.5 85t47 68.5t68.5 46t84 17.5t85 -17.5t70 -46t47 -68.5t17 -85t-17 -85t-47 -69t-70 -46.5t-85 -17.5t-84 17.5t-68.5 46.5t-47 69t-17.5 85z" />
<glyph unicode="&#xc0;" horiz-adv-x="1529" d="M0 0h469l66 215h456l68 -215h469l-504 1366h-520zM502 1811l223 -308h303l-233 308h-293zM623 500l141 461l141 -461h-282z" />
<glyph unicode="&#xc1;" horiz-adv-x="1529" d="M0 0h469l66 215h456l68 -215h469l-504 1366h-520zM502 1505h303l223 308h-293zM623 500l141 461l141 -461h-282z" />
<glyph unicode="&#xc2;" horiz-adv-x="1529" d="M0 0h469l66 215h456l68 -215h469l-504 1366h-520zM432 1501h256l74 134l63 -134h256l-184 308h-264zM623 500l141 461l141 -461h-282z" />
<glyph unicode="&#xc3;" horiz-adv-x="1529" d="M0 0h469l66 215h456l68 -215h469l-504 1366h-520zM297 1540l199 -47q16 53 42.5 81t80.5 28q35 0 56 -12.5t48 -34.5q37 -33 78 -47.5t106 -14.5q61 0 113.5 31t92.5 74t64.5 90t30.5 80l-198 47q-18 -51 -44 -80t-79 -29q-35 0 -56.5 13.5t-48.5 35.5q-39 33 -78.5 46.5 t-105.5 13.5q-61 0 -114.5 -31t-93.5 -74t-64.5 -90t-28.5 -80zM623 500l141 461l141 -461h-282z" />
<glyph unicode="&#xc4;" horiz-adv-x="1529" d="M0 0h469l66 215h456l68 -215h469l-504 1366h-520zM369 1650q0 -68 48 -114.5t116 -46.5t114.5 46.5t46.5 114.5t-47 116t-114 48q-68 0 -116 -48t-48 -116zM623 500l141 461l141 -461h-282zM838 1650q0 -68 47 -114.5t115 -46.5t115.5 46.5t47.5 114.5t-48 116t-115 48 q-68 0 -115 -48t-47 -116z" />
<glyph unicode="&#xc5;" horiz-adv-x="1529" d="M0 0h469l66 215h456l68 -215h469l-504 1366h-520zM553 1659q0 -80 56.5 -140t158.5 -60t158.5 60t56.5 140q0 82 -56.5 142.5t-158.5 60.5t-158.5 -60.5t-56.5 -142.5zM623 500l141 461l141 -461h-282zM701 1659q0 90 67 90q68 0 68 -90q0 -88 -68 -88t-67 88z" />
<glyph unicode="&#xc6;" horiz-adv-x="2093" d="M-20 0h495l115 215h395v-215h1034v328h-620v211h608v305h-608v194h620v328h-1233zM741 500l244 461v-461h-244z" />
<glyph unicode="&#xc7;" horiz-adv-x="1472" d="M76 682q0 -158 57 -290t157.5 -228t239 -150.5t297.5 -54.5q135 0 237.5 32t177.5 84t125 118.5t81 136.5l-340 157q-37 -92 -109.5 -143t-171.5 -51q-68 0 -127 24.5t-105 73.5t-72.5 122t-26.5 169t26.5 169t72.5 122t105.5 74.5t126.5 25.5q98 0 171 -52t110 -144 l340 161q-31 68 -81 134.5t-126 118.5t-177 84t-237 32q-160 0 -298 -54.5t-238.5 -150.5t-157.5 -229t-57 -291zM532 -352q27 -18 90.5 -42t171.5 -24q123 0 196.5 44t73.5 116q0 47 -22.5 79.5t-56 48t-72.5 15.5q-37 0 -68 -16l37 108l-180 11l-61 -164l133 -62 q8 16 22.5 24.5t28.5 8.5t23.5 -10t9.5 -29q0 -12 -18.5 -30.5t-82.5 -18.5q-35 0 -81 19.5t-87 52.5z" />
<glyph unicode="&#xc8;" horiz-adv-x="1220" d="M111 0h1036v328h-623v211l609 -2v307h-609v196l623 -2v328h-1036v-1366zM350 1811l223 -308h303l-233 308h-293z" />
<glyph unicode="&#xc9;" horiz-adv-x="1220" d="M111 0h1036v328h-623v211l609 -2v307h-609v196l623 -2v328h-1036v-1366zM350 1493h303l223 308h-293z" />
<glyph unicode="&#xca;" horiz-adv-x="1220" d="M111 0h1036v328h-623v211l609 -2v307h-609v196l623 -2v328h-1036v-1366zM303 1501h256l74 134l63 -134h256l-184 308h-264z" />
<glyph unicode="&#xcb;" horiz-adv-x="1220" d="M111 0h1036v328h-623v211l609 -2v307h-609v196l623 -2v328h-1036v-1366zM230 1679q0 -68 48 -114.5t116 -46.5t114.5 46.5t46.5 114.5t-47 116t-114 48q-68 0 -116 -48t-48 -116zM699 1679q0 -68 47 -114.5t115 -46.5t115.5 46.5t47.5 114.5t-48 116t-115 48 q-68 0 -115 -48t-47 -116z" />
<glyph unicode="&#xcc;" horiz-adv-x="634" d="M111 0h413v1366h-413v-1366zM111 1811l223 -308h303l-233 308h-293z" />
<glyph unicode="&#xcd;" horiz-adv-x="634" d="M111 0h413v1366h-413v-1366zM111 1505h303l223 308h-293z" />
<glyph unicode="&#xce;" horiz-adv-x="634" d="M111 0h413v1366h-413v-1366zM111 1501h256l74 134l63 -134h256l-184 308h-264z" />
<glyph unicode="&#xcf;" horiz-adv-x="634" d="M111 0h413v1366h-413v-1366zM111 1679q0 -68 48 -114.5t116 -46.5t114.5 46.5t46.5 114.5t-47 116t-114 48q-68 0 -116 -48t-48 -116zM580 1679q0 -68 47 -114.5t115 -46.5t115.5 46.5t47.5 114.5t-48 116t-115 48q-68 0 -115 -48t-47 -116z" />
<glyph unicode="&#xd0;" horiz-adv-x="1531" d="M0 596h111v-596h612q160 0 297 45t236.5 132t155.5 214t56 291h2q0 164 -57 291t-156.5 215t-236.5 133t-299 45h-610v-553h-111v-217zM522 326v270h117v217h-117v227l199 -2q82 0 143.5 -27.5t102.5 -75.5t60.5 -113.5t19.5 -141.5q0 -72 -23 -135.5t-64.5 -112.5 t-102 -77.5t-138.5 -28.5h-197z" />
<glyph unicode="&#xd1;" horiz-adv-x="1536" d="M111 0h411v776l506 -776h397v1366h-413v-737l-475 737h-426v-1366zM297 1540l199 -47q16 53 42.5 81t80.5 28q35 0 56 -12.5t48 -34.5q37 -33 78 -47.5t106 -14.5q61 0 113.5 31t92.5 74t64.5 90t30.5 80l-198 47q-18 -51 -44 -80t-79 -29q-35 0 -56.5 13.5t-48.5 35.5 q-39 33 -78.5 46.5t-105.5 13.5q-61 0 -114.5 -31t-93.5 -74t-64.5 -90t-28.5 -80z" />
<glyph unicode="&#xd2;" horiz-adv-x="1642" d="M76 682q0 -158 57 -290t157.5 -228t237 -150.5t295.5 -54.5q158 0 294 54.5t236.5 150.5t158 228t57.5 290t-57.5 291t-158 229t-236.5 150.5t-294 54.5q-160 0 -296 -54.5t-236.5 -150.5t-157.5 -229t-57 -291zM496 682q0 78 19.5 148.5t60 125t102 86t145.5 31.5 q82 0 143.5 -31.5t101.5 -86t60.5 -125t20.5 -148.5t-20.5 -148.5t-60.5 -124t-101.5 -85t-143.5 -31.5q-84 0 -145.5 31.5t-102 85t-60 124t-19.5 148.5zM514 1811l223 -308h303l-233 308h-293z" />
<glyph unicode="&#xd3;" horiz-adv-x="1642" d="M76 682q0 -158 57 -290t157.5 -228t237 -150.5t295.5 -54.5q158 0 294 54.5t236.5 150.5t158 228t57.5 290t-57.5 291t-158 229t-236.5 150.5t-294 54.5q-160 0 -296 -54.5t-236.5 -150.5t-157.5 -229t-57 -291zM496 682q0 78 19.5 148.5t60 125t102 86t145.5 31.5 q82 0 143.5 -31.5t101.5 -86t60.5 -125t20.5 -148.5t-20.5 -148.5t-60.5 -124t-101.5 -85t-143.5 -31.5q-84 0 -145.5 31.5t-102 85t-60 124t-19.5 148.5zM539 1505h303l223 308h-293z" />
<glyph unicode="&#xd4;" horiz-adv-x="1642" d="M76 682q0 -158 57 -290t157.5 -228t237 -150.5t295.5 -54.5q158 0 294 54.5t236.5 150.5t158 228t57.5 290t-57.5 291t-158 229t-236.5 150.5t-294 54.5q-160 0 -296 -54.5t-236.5 -150.5t-157.5 -229t-57 -291zM463 1501h256l74 134l63 -134h256l-184 308h-264zM496 682 q0 78 19.5 148.5t60 125t102 86t145.5 31.5q82 0 143.5 -31.5t101.5 -86t60.5 -125t20.5 -148.5t-20.5 -148.5t-60.5 -124t-101.5 -85t-143.5 -31.5q-84 0 -145.5 31.5t-102 85t-60 124t-19.5 148.5z" />
<glyph unicode="&#xd5;" horiz-adv-x="1642" d="M76 682q0 -158 57 -290t157.5 -228t237 -150.5t295.5 -54.5q158 0 294 54.5t236.5 150.5t158 228t57.5 290t-57.5 291t-158 229t-236.5 150.5t-294 54.5q-160 0 -296 -54.5t-236.5 -150.5t-157.5 -229t-57 -291zM365 1540l199 -47q16 53 42.5 81t80.5 28q35 0 56 -12.5 t48 -34.5q37 -33 78 -47.5t106 -14.5q61 0 113.5 31t92.5 74t64.5 90t30.5 80l-198 47q-18 -51 -44 -80t-79 -29q-35 0 -56.5 13.5t-48.5 35.5q-39 33 -78.5 46.5t-105.5 13.5q-61 0 -114.5 -31t-93.5 -74t-64.5 -90t-28.5 -80zM496 682q0 78 19.5 148.5t60 125t102 86 t145.5 31.5q82 0 143.5 -31.5t101.5 -86t60.5 -125t20.5 -148.5t-20.5 -148.5t-60.5 -124t-101.5 -85t-143.5 -31.5q-84 0 -145.5 31.5t-102 85t-60 124t-19.5 148.5z" />
<glyph unicode="&#xd6;" horiz-adv-x="1642" d="M76 682q0 -158 57 -290t157.5 -228t237 -150.5t295.5 -54.5q158 0 294 54.5t236.5 150.5t158 228t57.5 290t-57.5 291t-158 229t-236.5 150.5t-294 54.5q-160 0 -296 -54.5t-236.5 -150.5t-157.5 -229t-57 -291zM424 1673q0 -68 48 -114.5t116 -46.5t114.5 46.5 t46.5 114.5t-47 116t-114 48q-68 0 -116 -48t-48 -116zM496 682q0 78 19.5 148.5t60 125t102 86t145.5 31.5q82 0 143.5 -31.5t101.5 -86t60.5 -125t20.5 -148.5t-20.5 -148.5t-60.5 -124t-101.5 -85t-143.5 -31.5q-84 0 -145.5 31.5t-102 85t-60 124t-19.5 148.5zM893 1673 q0 -68 47 -114.5t115 -46.5t115.5 46.5t47.5 114.5t-48 116t-115 48q-68 0 -115 -48t-47 -116z" />
<glyph unicode="&#xd7;" horiz-adv-x="1046" d="M88 229l170 -170l264 267l266 -267l170 170l-264 267l264 264l-170 170l-266 -264l-264 264l-170 -170l264 -264z" />
<glyph unicode="&#xd8;" horiz-adv-x="1644" d="M76 0h282l58 68q88 -53 189.5 -81t217.5 -28q158 0 294 54.5t236.5 150.5t158 228t57.5 290q0 154 -52.5 281t-146.5 225l152 178h-283l-43 -51q-82 45 -175 68.5t-198 23.5q-160 0 -296 -54.5t-236.5 -150.5t-157.5 -229t-57 -291q0 -141 46 -262t128 -215zM496 682 q0 78 19.5 148.5t60 125t102 86t145.5 31.5q81 0 142 -31l-445 -522q-25 76 -24 162zM649 342l461 543q39 -90 39 -203q0 -78 -19.5 -148.5t-60.5 -124t-102.5 -85t-143.5 -31.5q-106 0 -174 49z" />
<glyph unicode="&#xd9;" horiz-adv-x="1583" d="M111 557q0 -127 50 -236.5t141 -189.5t216 -126t275 -46t274.5 46t214.5 127t140.5 190.5t50.5 236.5v807h-420v-829q0 -49 -19.5 -93.5t-55.5 -78t-83 -53t-102 -19.5t-103.5 19.5t-84.5 53t-55.5 77.5t-19.5 94v829h-419v-809zM524 1811l223 -308h303l-233 308h-293z " />
<glyph unicode="&#xda;" horiz-adv-x="1583" d="M111 557q0 -127 50 -236.5t141 -189.5t216 -126t275 -46t274.5 46t214.5 127t140.5 190.5t50.5 236.5v807h-420v-829q0 -49 -19.5 -93.5t-55.5 -78t-83 -53t-102 -19.5t-103.5 19.5t-84.5 53t-55.5 77.5t-19.5 94v829h-419v-809zM526 1505h303l223 308h-293z" />
<glyph unicode="&#xdb;" horiz-adv-x="1583" d="M111 557q0 -127 50 -236.5t141 -189.5t216 -126t275 -46t274.5 46t214.5 127t140.5 190.5t50.5 236.5v807h-420v-829q0 -49 -19.5 -93.5t-55.5 -78t-83 -53t-102 -19.5t-103.5 19.5t-84.5 53t-55.5 77.5t-19.5 94v829h-419v-809zM461 1501h256l74 134l63 -134h256 l-184 308h-264z" />
<glyph unicode="&#xdc;" horiz-adv-x="1583" d="M111 557q0 -127 50 -236.5t141 -189.5t216 -126t275 -46t274.5 46t214.5 127t140.5 190.5t50.5 236.5v807h-420v-829q0 -49 -19.5 -93.5t-55.5 -78t-83 -53t-102 -19.5t-103.5 19.5t-84.5 53t-55.5 77.5t-19.5 94v829h-419v-809zM400 1679q0 -68 48 -114.5t116 -46.5 t114.5 46.5t46.5 114.5t-47 116t-114 48q-68 0 -116 -48t-48 -116zM869 1679q0 -68 47 -114.5t115 -46.5t115.5 46.5t47.5 114.5t-48 116t-115 48q-68 0 -115 -48t-47 -116z" />
<glyph unicode="&#xdd;" horiz-adv-x="1435" d="M0 1366l514 -823v-543h408v543l514 823h-463l-252 -461l-254 461h-467zM455 1482h303l223 308h-293z" />
<glyph unicode="&#xde;" horiz-adv-x="1368" d="M111 0h413v272h316q127 0 220 36t153.5 95.5t89 139.5t28.5 168t-32.5 167.5t-96 140t-155 96.5t-207.5 36h-316v215h-413v-1366zM524 567v287h260q45 0 86 -38.5t41 -104.5q0 -63 -41 -103.5t-86 -40.5h-260z" />
<glyph unicode="&#xdf;" horiz-adv-x="1482" d="M104 0h369v1010q0 29 13.5 50t33 36.5t41 23.5t37.5 8q55 0 86 -14t45 -33.5t17.5 -39t3.5 -27.5q0 -31 -22.5 -57.5t-55.5 -55.5q-96 -86 -97 -199q0 -90 31 -151.5t83 -101t124 -61t154 -28.5q53 -4 73.5 -22.5t20.5 -46.5q0 -29 -35 -43.5t-82 -14.5q-27 0 -59.5 11.5 t-65.5 31t-63.5 44t-53.5 51.5l-163 -221q37 -31 81 -63t97 -57.5t118.5 -41t147.5 -15.5q92 0 176 26t147.5 71t101.5 108t38 137q0 143 -80 229.5t-268 108.5q-86 10 -124 20.5t-38 51.5q0 12 6 20.5t14 16.5q45 33 84 94.5t39 159.5q0 76 -28.5 145.5t-85 121.5 t-143.5 84t-204 32q-129 0 -225 -29t-160.5 -81t-96.5 -123.5t-32 -155.5v-1010z" />
<glyph unicode="&#xe0;" horiz-adv-x="1230" d="M70 303q0 -90 37.5 -153.5t97 -102.5t131.5 -56.5t139 -17.5q37 0 80 9.5t83 26t72.5 38t47.5 47.5v-94h368v604q0 123 -44 204t-114.5 128t-160.5 65.5t-182 18.5q-47 0 -110.5 -7t-132.5 -24.5t-135.5 -49.5t-117.5 -81l127 -201q55 57 137 87t164 30q92 0 146.5 -46 t54.5 -110v-92q-14 25 -46 45.5t-73 35t-84 21.5t-80 7q-68 0 -139.5 -15.5t-131 -52.5t-97 -101.5t-37.5 -162.5zM334 1434l223 -308h303l-233 308h-293zM434 319q0 39 17.5 64t42 40t53 21.5t51.5 6.5q43 0 92 -17.5t68 -50.5v-131q-18 -33 -67.5 -49.5t-92.5 -16.5 q-23 0 -51.5 6.5t-53 21.5t-42 41t-17.5 64z" />
<glyph unicode="&#xe1;" horiz-adv-x="1230" d="M70 303q0 -90 37.5 -153.5t97 -102.5t131.5 -56.5t139 -17.5q37 0 80 9.5t83 26t72.5 38t47.5 47.5v-94h368v604q0 123 -44 204t-114.5 128t-160.5 65.5t-182 18.5q-47 0 -110.5 -7t-132.5 -24.5t-135.5 -49.5t-117.5 -81l127 -201q55 57 137 87t164 30q92 0 146.5 -46 t54.5 -110v-92q-14 25 -46 45.5t-73 35t-84 21.5t-80 7q-68 0 -139.5 -15.5t-131 -52.5t-97 -101.5t-37.5 -162.5zM356 1126h303l223 308h-293zM434 319q0 39 17.5 64t42 40t53 21.5t51.5 6.5q43 0 92 -17.5t68 -50.5v-131q-18 -33 -67.5 -49.5t-92.5 -16.5q-23 0 -51.5 6.5 t-53 21.5t-42 41t-17.5 64z" />
<glyph unicode="&#xe2;" horiz-adv-x="1230" d="M70 303q0 -90 37.5 -153.5t97 -102.5t131.5 -56.5t139 -17.5q37 0 80 9.5t83 26t72.5 38t47.5 47.5v-94h368v604q0 123 -44 204t-114.5 128t-160.5 65.5t-182 18.5q-47 0 -110.5 -7t-132.5 -24.5t-135.5 -49.5t-117.5 -81l127 -201q55 57 137 87t164 30q92 0 146.5 -46 t54.5 -110v-92q-14 25 -46 45.5t-73 35t-84 21.5t-80 7q-68 0 -139.5 -15.5t-131 -52.5t-97 -101.5t-37.5 -162.5zM281 1126h256l74 134l63 -134h256l-184 308h-264zM434 319q0 39 17.5 64t42 40t53 21.5t51.5 6.5q43 0 92 -17.5t68 -50.5v-131q-18 -33 -67.5 -49.5 t-92.5 -16.5q-23 0 -51.5 6.5t-53 21.5t-42 41t-17.5 64z" />
<glyph unicode="&#xe3;" horiz-adv-x="1230" d="M70 303q0 -90 37.5 -153.5t97 -102.5t131.5 -56.5t139 -17.5q37 0 80 9.5t83 26t72.5 38t47.5 47.5v-94h368v604q0 123 -44 204t-114.5 128t-160.5 65.5t-182 18.5q-47 0 -110.5 -7t-132.5 -24.5t-135.5 -49.5t-117.5 -81l127 -201q55 57 137 87t164 30q92 0 146.5 -46 t54.5 -110v-92q-14 25 -46 45.5t-73 35t-84 21.5t-80 7q-68 0 -139.5 -15.5t-131 -52.5t-97 -101.5t-37.5 -162.5zM160 1202l199 -47q16 53 42.5 81t80.5 28q35 0 56 -12.5t48 -34.5q37 -33 78 -47.5t106 -14.5q61 0 113.5 31t92.5 74t64.5 90t30.5 80l-198 47 q-18 -51 -44 -80t-79 -29q-35 0 -56.5 13.5t-48.5 35.5q-39 33 -78.5 46.5t-105.5 13.5q-61 0 -114.5 -31t-93.5 -74t-64.5 -90t-28.5 -80zM434 319q0 39 17.5 64t42 40t53 21.5t51.5 6.5q43 0 92 -17.5t68 -50.5v-131q-18 -33 -67.5 -49.5t-92.5 -16.5q-23 0 -51.5 6.5 t-53 21.5t-42 41t-17.5 64z" />
<glyph unicode="&#xe4;" horiz-adv-x="1230" d="M70 303q0 -90 37.5 -153.5t97 -102.5t131.5 -56.5t139 -17.5q37 0 80 9.5t83 26t72.5 38t47.5 47.5v-94h368v604q0 123 -44 204t-114.5 128t-160.5 65.5t-182 18.5q-47 0 -110.5 -7t-132.5 -24.5t-135.5 -49.5t-117.5 -81l127 -201q55 57 137 87t164 30q92 0 146.5 -46 t54.5 -110v-92q-14 25 -46 45.5t-73 35t-84 21.5t-80 7q-68 0 -139.5 -15.5t-131 -52.5t-97 -101.5t-37.5 -162.5zM221 1298q0 -68 48 -114.5t116 -46.5t114.5 46.5t46.5 114.5t-47 116t-114 48q-68 0 -116 -48t-48 -116zM434 319q0 39 17.5 64t42 40t53 21.5t51.5 6.5 q43 0 92 -17.5t68 -50.5v-131q-18 -33 -67.5 -49.5t-92.5 -16.5q-23 0 -51.5 6.5t-53 21.5t-42 41t-17.5 64zM690 1298q0 -68 47 -114.5t115 -46.5t115.5 46.5t47.5 114.5t-48 116t-115 48q-68 0 -115 -48t-47 -116z" />
<glyph unicode="&#xe5;" horiz-adv-x="1230" d="M70 303q0 -90 37.5 -153.5t97 -102.5t131.5 -56.5t139 -17.5q37 0 80 9.5t83 26t72.5 38t47.5 47.5v-94h368v604q0 123 -44 204t-114.5 128t-160.5 65.5t-182 18.5q-47 0 -110.5 -7t-132.5 -24.5t-135.5 -49.5t-117.5 -81l127 -201q55 57 137 87t164 30q92 0 146.5 -46 t54.5 -110v-92q-14 25 -46 45.5t-73 35t-84 21.5t-80 7q-68 0 -139.5 -15.5t-131 -52.5t-97 -101.5t-37.5 -162.5zM395 1337q0 -80 56.5 -140t158.5 -60t158.5 60t56.5 140q0 82 -56.5 142.5t-158.5 60.5t-158.5 -60.5t-56.5 -142.5zM434 319q0 39 17.5 64t42 40t53 21.5 t51.5 6.5q43 0 92 -17.5t68 -50.5v-131q-18 -33 -67.5 -49.5t-92.5 -16.5q-23 0 -51.5 6.5t-53 21.5t-42 41t-17.5 64zM543 1337q0 90 67 90q68 0 68 -90q0 -88 -68 -88t-67 88z" />
<glyph unicode="&#xe6;" horiz-adv-x="1871" d="M70 303q0 -88 43 -150.5t110.5 -102.5t152.5 -58.5t169 -18.5q63 0 123.5 11.5t113 30t92 42t62.5 45.5q135 -129 364 -129q45 0 102.5 9.5t116 28t111.5 47t90 67.5l-159 201q-18 -16 -47 -29.5t-60 -25t-61.5 -17.5t-51.5 -6q-96 0 -156.5 42t-80.5 99h698v107 q0 115 -40 211t-109.5 164.5t-163.5 107.5t-203 39q-106 0 -191 -33t-149 -92q-53 68 -135 97.5t-186 29.5q-47 0 -110.5 -7t-132.5 -24.5t-135.5 -49.5t-117.5 -81l127 -201q55 57 137 87t164 30q92 0 146.5 -46t54.5 -110v-92q-14 25 -46 45.5t-73 35t-84 21.5t-80 7 q-68 0 -139.5 -15.5t-131 -52.5t-97 -101.5t-37.5 -162.5zM434 317q0 39 17.5 65t42 41t53 21.5t51.5 6.5q43 0 92 -16.5t68 -51.5v-129q-18 -35 -67.5 -51.5t-92.5 -16.5q-23 0 -51.5 6.5t-53 21.5t-42 40t-17.5 63zM1100 590q6 31 18 60.5t36 53t57.5 38t82.5 14.5 t85 -15.5t58.5 -39t34 -53t15.5 -58.5h-387z" />
<glyph unicode="&#xe7;" horiz-adv-x="1085" d="M70 496q0 -119 43 -215.5t117.5 -165t176 -105.5t218.5 -37q84 0 152.5 17.5t120.5 45t89 61.5t57 65l-237 207q-16 -41 -61.5 -72t-104.5 -31q-78 0 -136.5 58.5t-58.5 171.5q0 111 58.5 169t136.5 58q59 0 104.5 -29.5t61.5 -72.5l237 206q-20 31 -57 65t-89 61.5 t-120.5 46t-152.5 18.5q-117 0 -218.5 -38t-176 -106.5t-117.5 -165t-43 -212.5zM322 -333q27 -18 90.5 -42t171.5 -24q123 0 196.5 44t73.5 116q0 47 -22.5 79.5t-56 48t-72.5 15.5q-37 0 -68 -16l37 108l-180 11l-61 -164l133 -62q8 16 22.5 24.5t28.5 8.5t23.5 -10 t9.5 -29q0 -12 -18.5 -30.5t-82.5 -18.5q-35 0 -81 19.5t-87 52.5z" />
<glyph unicode="&#xe8;" horiz-adv-x="1191" d="M70 496q0 -123 43 -219.5t116.5 -164t174 -103.5t217.5 -36q45 0 103 9.5t115.5 28t111 47t89.5 67.5l-157 201q-18 -16 -47 -29.5t-61 -25t-61.5 -17.5t-49.5 -6q-98 0 -158 42t-80 99h696v107q0 115 -40 211t-108.5 164.5t-162.5 107.5t-203 39q-121 0 -219 -41 t-170 -112.5t-110.5 -167t-38.5 -201.5zM350 1434l223 -308h303l-233 308h-293zM422 590q4 31 16.5 60.5t36 53t57 38t82.5 14.5q51 0 86 -15.5t58.5 -39t35 -53t15.5 -58.5h-387z" />
<glyph unicode="&#xe9;" horiz-adv-x="1191" d="M70 496q0 -123 43 -219.5t116.5 -164t174 -103.5t217.5 -36q45 0 103 9.5t115.5 28t111 47t89.5 67.5l-157 201q-18 -16 -47 -29.5t-61 -25t-61.5 -17.5t-49.5 -6q-98 0 -158 42t-80 99h696v107q0 115 -40 211t-108.5 164.5t-162.5 107.5t-203 39q-121 0 -219 -41 t-170 -112.5t-110.5 -167t-38.5 -201.5zM328 1126h303l223 308h-293zM422 590q4 31 16.5 60.5t36 53t57 38t82.5 14.5q51 0 86 -15.5t58.5 -39t35 -53t15.5 -58.5h-387z" />
<glyph unicode="&#xea;" horiz-adv-x="1191" d="M70 496q0 -123 43 -219.5t116.5 -164t174 -103.5t217.5 -36q45 0 103 9.5t115.5 28t111 47t89.5 67.5l-157 201q-18 -16 -47 -29.5t-61 -25t-61.5 -17.5t-49.5 -6q-98 0 -158 42t-80 99h696v107q0 115 -40 211t-108.5 164.5t-162.5 107.5t-203 39q-121 0 -219 -41 t-170 -112.5t-110.5 -167t-38.5 -201.5zM274 1126h256l74 134l63 -134h256l-184 308h-264zM422 590q4 31 16.5 60.5t36 53t57 38t82.5 14.5q51 0 86 -15.5t58.5 -39t35 -53t15.5 -58.5h-387z" />
<glyph unicode="&#xeb;" horiz-adv-x="1191" d="M70 496q0 -123 43 -219.5t116.5 -164t174 -103.5t217.5 -36q45 0 103 9.5t115.5 28t111 47t89.5 67.5l-157 201q-18 -16 -47 -29.5t-61 -25t-61.5 -17.5t-49.5 -6q-98 0 -158 42t-80 99h696v107q0 115 -40 211t-108.5 164.5t-162.5 107.5t-203 39q-121 0 -219 -41 t-170 -112.5t-110.5 -167t-38.5 -201.5zM201 1298q0 -68 48 -114.5t116 -46.5t114.5 46.5t46.5 114.5t-47 116t-114 48q-68 0 -116 -48t-48 -116zM422 590q4 31 16.5 60.5t36 53t57 38t82.5 14.5q51 0 86 -15.5t58.5 -39t35 -53t15.5 -58.5h-387zM670 1298q0 -68 47 -114.5 t115 -46.5t115.5 46.5t47.5 114.5t-48 116t-115 48q-68 0 -115 -48t-47 -116z" />
<glyph unicode="&#xec;" horiz-adv-x="1024" d="M104 1434l223 -308h303l-233 308h-293z" />
<glyph unicode="&#xed;" horiz-adv-x="1024" d="M104 1126h303l223 308h-293z" />
<glyph unicode="&#xee;" horiz-adv-x="1024" d="M104 1126h256l74 134l63 -134h256l-184 308h-264z" />
<glyph unicode="&#xef;" horiz-adv-x="1024" d="M105 1298q0 -68 48 -114.5t116 -46.5t114.5 46.5t46.5 114.5t-47 116t-114 48q-68 0 -116 -48t-48 -116zM574 1298q0 -68 47 -114.5t115 -46.5t115.5 46.5t47.5 114.5t-48 116t-115 48q-68 0 -115 -48t-47 -116z" />
<glyph unicode="&#xf0;" horiz-adv-x="1255" d="M70 496q0 -127 34.5 -225.5t94 -164t138.5 -99.5t169 -34q88 0 157.5 30t120.5 101l-2 -104h371l-2 1071h80v170h-80l2 125h-371l2 -125h-86v-170h86l-2 -186q-47 72 -117.5 102.5t-158.5 30.5q-92 0 -171 -36t-138.5 -102.5t-93 -164t-33.5 -219.5zM446 496 q0 111 54.5 171t130.5 60q37 0 82 -10t71 -45l-2 -355q-25 -35 -69.5 -45t-81.5 -10q-76 0 -130.5 61.5t-54.5 172.5z" />
<glyph unicode="&#xf1;" horiz-adv-x="1245" d="M104 0h369v631q23 27 58.5 52.5t99.5 25.5q66 0 103.5 -32t37.5 -110v-88v-117v-129v-116q0 -51 1 -84l1 -33h369l-1 76t-1 184v232v215q0 63 -19.5 120.5t-59.5 99.5t-101.5 66.5t-147.5 24.5q-131 0 -214 -44t-126 -93v108h-369v-989zM160 1202l199 -47q16 53 42.5 81 t80.5 28q35 0 56 -12.5t48 -34.5q37 -33 78 -47.5t106 -14.5q61 0 113.5 31t92.5 74t64.5 90t30.5 80l-198 47q-18 -51 -44 -80t-79 -29q-35 0 -56.5 13.5t-48.5 35.5q-39 33 -78.5 46.5t-105.5 13.5q-61 0 -114.5 -31t-93.5 -74t-64.5 -90t-28.5 -80z" />
<glyph unicode="&#xf2;" horiz-adv-x="1251" d="M70 496q0 -104 37.5 -198.5t108.5 -166.5t174.5 -115t234.5 -43t235.5 43t175 115t108.5 166.5t38 198.5t-38 198t-108.5 166t-175 115t-235.5 43t-234.5 -43t-174.5 -115t-108.5 -166t-37.5 -198zM346 1434l223 -308h303l-233 308h-293zM449 496q0 113 45 170t131 57 t132 -57t46 -170q0 -115 -46 -172.5t-132 -57.5t-131 57.5t-45 172.5z" />
<glyph unicode="&#xf3;" horiz-adv-x="1251" d="M70 496q0 -104 37.5 -198.5t108.5 -166.5t174.5 -115t234.5 -43t235.5 43t175 115t108.5 166.5t38 198.5t-38 198t-108.5 166t-175 115t-235.5 43t-234.5 -43t-174.5 -115t-108.5 -166t-37.5 -198zM362 1126h303l223 308h-293zM449 496q0 113 45 170t131 57t132 -57 t46 -170q0 -115 -46 -172.5t-132 -57.5t-131 57.5t-45 172.5z" />
<glyph unicode="&#xf4;" horiz-adv-x="1251" d="M70 496q0 -104 37.5 -198.5t108.5 -166.5t174.5 -115t234.5 -43t235.5 43t175 115t108.5 166.5t38 198.5t-38 198t-108.5 166t-175 115t-235.5 43t-234.5 -43t-174.5 -115t-108.5 -166t-37.5 -198zM297 1126h256l74 134l63 -134h256l-184 308h-264zM449 496q0 113 45 170 t131 57t132 -57t46 -170q0 -115 -46 -172.5t-132 -57.5t-131 57.5t-45 172.5z" />
<glyph unicode="&#xf5;" horiz-adv-x="1251" d="M70 496q0 -104 37.5 -198.5t108.5 -166.5t174.5 -115t234.5 -43t235.5 43t175 115t108.5 166.5t38 198.5t-38 198t-108.5 166t-175 115t-235.5 43t-234.5 -43t-174.5 -115t-108.5 -166t-37.5 -198zM168 1202l199 -47q16 53 42.5 81t80.5 28q35 0 56 -12.5t48 -34.5 q37 -33 78 -47.5t106 -14.5q61 0 113.5 31t92.5 74t64.5 90t30.5 80l-198 47q-18 -51 -44 -80t-79 -29q-35 0 -56.5 13.5t-48.5 35.5q-39 33 -78.5 46.5t-105.5 13.5q-61 0 -114.5 -31t-93.5 -74t-64.5 -90t-28.5 -80zM449 496q0 113 45 170t131 57t132 -57t46 -170 q0 -115 -46 -172.5t-132 -57.5t-131 57.5t-45 172.5z" />
<glyph unicode="&#xf6;" horiz-adv-x="1251" d="M70 496q0 -104 37.5 -198.5t108.5 -166.5t174.5 -115t234.5 -43t235.5 43t175 115t108.5 166.5t38 198.5t-38 198t-108.5 166t-175 115t-235.5 43t-234.5 -43t-174.5 -115t-108.5 -166t-37.5 -198zM225 1298q0 -68 48 -114.5t116 -46.5t114.5 46.5t46.5 114.5t-47 116 t-114 48q-68 0 -116 -48t-48 -116zM449 496q0 113 45 170t131 57t132 -57t46 -170q0 -115 -46 -172.5t-132 -57.5t-131 57.5t-45 172.5zM694 1298q0 -68 47 -114.5t115 -46.5t115.5 46.5t47.5 114.5t-48 116t-115 48q-68 0 -115 -48t-47 -116z" />
<glyph unicode="&#xf7;" horiz-adv-x="1046" d="M59 393l928 2v-2v217l-928 -2v-215zM342 133q0 -66 45 -113t131 -47q82 0 127 47t45 113q0 68 -45 115t-129 47t-129 -47t-45 -115zM348 874q0 -70 46 -115.5t130 -45.5q82 0 128 45.5t46 115.5q0 66 -46 113t-128 47q-84 0 -130 -47t-46 -113z" />
<glyph unicode="&#xf8;" horiz-adv-x="1286" d="M70 0h215l49 53q63 -39 141 -59.5t170 -20.5q131 0 234.5 42t175 115t108.5 167.5t37 198.5q0 98 -31.5 185t-95.5 159l144 149h-216l-47 -51q-63 37 -140 58.5t-169 21.5q-131 0 -234.5 -43t-174 -115t-107.5 -166t-37 -198q0 -197 123 -342zM469 496q0 113 45 171 t131 58q47 0 88 -20l-260 -277q-2 16 -3 32.5t-1 35.5zM555 289l262 278q6 -34 6 -71q0 -115 -46 -172.5t-132 -57.5q-57 0 -90 23z" />
<glyph unicode="&#xf9;" horiz-adv-x="1245" d="M104 283q0 -63 18.5 -120t58.5 -98.5t102.5 -66.5t148.5 -25q66 0 119 12.5t95 33t73 44t53 48.5v-111h369v989h-369v-629q-23 -27 -58.5 -52t-97.5 -25q-68 0 -105.5 31.5t-37.5 107.5v567h-369v-706zM346 1434l223 -308h303l-233 308h-293z" />
<glyph unicode="&#xfa;" horiz-adv-x="1245" d="M104 283q0 -63 18.5 -120t58.5 -98.5t102.5 -66.5t148.5 -25q66 0 119 12.5t95 33t73 44t53 48.5v-111h369v989h-369v-629q-23 -27 -58.5 -52t-97.5 -25q-68 0 -105.5 31.5t-37.5 107.5v567h-369v-706zM358 1126h303l223 308h-293z" />
<glyph unicode="&#xfb;" horiz-adv-x="1245" d="M104 283q0 -63 18.5 -120t58.5 -98.5t102.5 -66.5t148.5 -25q66 0 119 12.5t95 33t73 44t53 48.5v-111h369v989h-369v-629q-23 -27 -58.5 -52t-97.5 -25q-68 0 -105.5 31.5t-37.5 107.5v567h-369v-706zM299 1126h256l74 134l63 -134h256l-184 308h-264z" />
<glyph unicode="&#xfc;" horiz-adv-x="1245" d="M104 283q0 -63 18.5 -120t58.5 -98.5t102.5 -66.5t148.5 -25q66 0 119 12.5t95 33t73 44t53 48.5v-111h369v989h-369v-629q-23 -27 -58.5 -52t-97.5 -25q-68 0 -105.5 31.5t-37.5 107.5v567h-369v-706zM225 1298q0 -68 48 -114.5t116 -46.5t114.5 46.5t46.5 114.5 t-47 116t-114 48q-68 0 -116 -48t-48 -116zM694 1298q0 -68 47 -114.5t115 -46.5t115.5 46.5t47.5 114.5t-48 116t-115 48q-68 0 -115 -48t-47 -116z" />
<glyph unicode="&#xfd;" horiz-adv-x="1157" d="M0 989l389 -1005q0 2 -3 -6.5t-7 -18.5q-16 -35 -62.5 -43t-126.5 -8v-332q94 0 174 4t145.5 33t120 89t97.5 175l430 1112h-389l-190 -627l-189 627h-389zM311 1126h303l223 308h-293z" />
<glyph unicode="&#xfe;" horiz-adv-x="1255" d="M104 -395h369v499q49 -72 119 -101.5t160 -29.5q92 0 170.5 34t137 99.5t92.5 164t34 225.5t-34 224t-92.5 163.5t-137 100.5t-170.5 34q-90 0 -161 -31t-118 -102v481h-369v-1761zM473 317v355q27 35 72 45t80 10q74 0 129 -60t55 -171t-55.5 -172.5t-128.5 -61.5 q-35 0 -81 10.5t-71 44.5z" />
<glyph unicode="&#xff;" horiz-adv-x="1157" d="M0 989l389 -1005q0 2 -3 -6.5t-7 -18.5q-16 -35 -62.5 -43t-126.5 -8v-332q94 0 174 4t145.5 33t120 89t97.5 175l430 1112h-389l-190 -627l-189 627h-389zM185 1298q0 -68 48 -114.5t116 -46.5t114.5 46.5t46.5 114.5t-47 116t-114 48q-68 0 -116 -48t-48 -116z M654 1298q0 -68 47 -114.5t115 -46.5t115.5 46.5t47.5 114.5t-48 116t-115 48q-68 0 -115 -48t-47 -116z" />
<glyph unicode="&#x152;" horiz-adv-x="2224" d="M76 682q0 -158 52 -290t145.5 -228t221.5 -150.5t279 -54.5q102 0 187.5 29.5t154.5 79.5v-68h1034v328h-622v211h608v305h-608v194h622v328h-1034v-70q-70 51 -154.5 81t-187.5 30q-152 0 -279.5 -54.5t-221 -150.5t-145.5 -229t-52 -291zM496 682q0 78 22.5 148.5 t67.5 125t112.5 86t157.5 31.5q92 0 155.5 -33.5t104.5 -93.5v-526q-41 -59 -104.5 -93t-155.5 -34q-90 0 -157.5 31.5t-112.5 85t-67.5 124t-22.5 148.5z" />
<glyph unicode="&#x153;" horiz-adv-x="1925" d="M70 496q0 -104 37.5 -198.5t108.5 -167.5t174.5 -115t234.5 -42q117 0 201.5 40t144.5 110q68 -72 164 -111t219 -39q45 0 102 9.5t115.5 28t112 47t90.5 67.5l-160 201q-18 -16 -47 -29.5t-59.5 -25t-61.5 -17.5t-51 -6q-96 0 -156.5 42t-81.5 99h698v107 q0 115 -39.5 211t-109.5 164.5t-164 107.5t-203 39q-119 0 -211 -41t-155 -111q-59 70 -145.5 111t-202.5 41q-131 0 -234.5 -43t-174.5 -115t-108.5 -166t-37.5 -198zM446 496q0 113 46.5 171t132.5 58t132 -58t46 -171q0 -115 -46 -172.5t-132 -57.5t-132.5 57.5 t-46.5 172.5zM1153 590q6 31 18.5 60.5t35 53t57 39t84.5 15.5q49 0 84.5 -15.5t58 -40t34 -54t15.5 -58.5h-387z" />
<glyph unicode="&#x178;" horiz-adv-x="1435" d="M0 1366l514 -823v-543h408v543l514 823h-463l-252 -461l-254 461h-467zM326 1679q0 -68 48 -114.5t116 -46.5t114.5 46.5t46.5 114.5t-47 116t-114 48q-68 0 -116 -48t-48 -116zM795 1679q0 -68 47 -114.5t115 -46.5t115.5 46.5t47.5 114.5t-48 116t-115 48 q-68 0 -115 -48t-47 -116z" />
<glyph unicode="&#x2c6;" horiz-adv-x="649" d="M0 1126h256l74 134l63 -134h256l-184 308h-264z" />
<glyph unicode="&#x2dc;" horiz-adv-x="909" d="M0 1202l199 -47q16 53 42.5 81t80.5 28q35 0 56 -12.5t48 -34.5q37 -33 78 -47.5t106 -14.5q61 0 113.5 31t92.5 74t64.5 90t30.5 80l-198 47q-18 -51 -44 -80t-79 -29q-35 0 -56.5 13.5t-48.5 35.5q-39 33 -78.5 46.5t-105.5 13.5q-61 0 -114.5 -31t-93.5 -74t-64.5 -90 t-28.5 -80z" />
<glyph unicode="&#x2000;" horiz-adv-x="931" />
<glyph unicode="&#x2001;" horiz-adv-x="1862" />
<glyph unicode="&#x2002;" horiz-adv-x="931" />
<glyph unicode="&#x2003;" horiz-adv-x="1862" />
<glyph unicode="&#x2004;" horiz-adv-x="620" />
<glyph unicode="&#x2005;" horiz-adv-x="465" />
<glyph unicode="&#x2006;" horiz-adv-x="310" />
<glyph unicode="&#x2007;" horiz-adv-x="310" />
<glyph unicode="&#x2008;" horiz-adv-x="232" />
<glyph unicode="&#x2009;" horiz-adv-x="372" />
<glyph unicode="&#x200a;" horiz-adv-x="103" />
<glyph unicode="&#x2010;" horiz-adv-x="614" d="M61 342h492v307h-492v-307z" />
<glyph unicode="&#x2011;" horiz-adv-x="614" d="M61 342h492v307h-492v-307z" />
<glyph unicode="&#x2012;" horiz-adv-x="614" d="M61 342h492v307h-492v-307z" />
<glyph unicode="&#x2013;" horiz-adv-x="1214" d="M61 342h1092v307h-1092v-307z" />
<glyph unicode="&#x2014;" horiz-adv-x="1705" d="M61 342h1584v307h-1584v-307z" />
<glyph unicode="&#x2018;" d="M70 944q0 -78 22.5 -127t56 -76.5t71.5 -38t67 -10.5q45 0 85 17.5t69.5 47t47 69.5t17.5 85q0 63 -37 110.5t-82 70.5q-20 10 -49 16t-57 2q6 27 28.5 55.5t50 53t56 42t49.5 25.5l-154 121q-127 -90 -184 -208t-57 -255z" />
<glyph unicode="&#x2019;" d="M70 1165q0 -61 35.5 -108t80.5 -70q20 -10 50 -16t57 -2q-6 -29 -27.5 -56.5t-49.5 -52t-56.5 -43t-48.5 -24.5l151 -123q129 92 186.5 210t57.5 253q0 78 -22.5 127t-56.5 76.5t-72 37.5t-68 10q-45 0 -84 -17t-69 -47t-47 -70t-17 -85z" />
<glyph unicode="&#x201a;" d="M70 207q0 45 17 85t47 68.5t69 46t84 17.5q31 0 68.5 -10.5t71.5 -38t56.5 -75.5t22.5 -126q0 -135 -58.5 -254t-187.5 -209l-149 121q20 8 48.5 26.5t56.5 43t49.5 52.5t27.5 54q-27 -4 -56.5 2t-50.5 17q-45 23 -80.5 70.5t-35.5 109.5z" />
<glyph unicode="&#x201c;" horiz-adv-x="1079" d="M70 944q0 -78 22.5 -127t56 -76.5t71.5 -38t67 -10.5q45 0 85 17.5t69.5 47t47 69.5t17.5 85q0 63 -37 110.5t-82 70.5q-20 10 -49 16t-57 2q6 27 28.5 55.5t50 53t56 42t49.5 25.5l-154 121q-127 -90 -184 -208t-57 -255zM575 944q0 -78 23 -127t56.5 -76.5t70.5 -38 t68 -10.5q45 0 85 17.5t68.5 47t46 69.5t17.5 85q0 63 -36 110.5t-81 70.5q-23 10 -50.5 16t-56.5 2q6 27 29 55.5t50.5 53t56 42t47.5 25.5l-152 121q-127 -90 -184.5 -208t-57.5 -255z" />
<glyph unicode="&#x201d;" horiz-adv-x="1079" d="M70 1147q0 -61 35.5 -109.5t80.5 -70.5q20 -10 50 -16.5t57 -2.5q-6 -27 -27.5 -54.5t-49.5 -52t-56.5 -43t-48.5 -26.5l151 -121q129 92 186.5 210t57.5 253q0 78 -22.5 127t-56.5 77t-72 38t-68 10q-45 0 -84 -17.5t-69 -47t-47 -69.5t-17 -85zM575 1147 q0 -61 36 -109.5t81 -70.5q20 -10 50 -16.5t57 -2.5q-6 -27 -27.5 -54.5t-49.5 -52t-56.5 -43t-49.5 -26.5l150 -121q129 92 186.5 210t57.5 253q0 78 -22.5 127t-56.5 77t-71 38t-67 10q-45 0 -85 -17.5t-69 -47t-46.5 -69.5t-17.5 -85z" />
<glyph unicode="&#x201e;" horiz-adv-x="1079" d="M70 203q0 45 17 85t47 69.5t69 47t84 17.5q31 0 68.5 -10.5t71.5 -38t56.5 -76.5t22.5 -127q0 -135 -58.5 -253t-187.5 -208l-149 121q20 6 48.5 24.5t56.5 43t49.5 53.5t27.5 55q-27 -4 -56.5 2t-50.5 17q-45 23 -80.5 69.5t-35.5 108.5zM575 203q0 45 17.5 85 t46.5 69.5t69 47t85 17.5q31 0 67.5 -10.5t70.5 -38t56.5 -76.5t22.5 -127q0 -135 -57.5 -253t-186.5 -208l-150 121q20 6 49 24.5t57 43t49.5 53.5t27.5 55q-29 -4 -57.5 2t-51.5 17q-43 23 -79 69.5t-36 108.5z" />
<glyph unicode="&#x2022;" horiz-adv-x="733" d="M102 584q0 -55 20.5 -103.5t57.5 -84.5t85 -56.5t104 -20.5q55 0 103 20.5t85 56.5t57.5 84.5t20.5 103.5t-20.5 103t-57.5 85t-85 57.5t-103 20.5t-103.5 -20.5t-85.5 -57.5t-57.5 -85t-20.5 -103z" />
<glyph unicode="&#x2026;" horiz-adv-x="2017" d="M176 207q0 45 17.5 85t47 68.5t68.5 46t84 17.5t85 -17.5t70 -46t47 -68.5t17 -85t-17 -85t-47 -68.5t-70 -46t-85 -17.5t-84 17.5t-68.5 46t-47 68.5t-17.5 85zM840 207q0 92 62.5 154.5t154.5 62.5t154.5 -62.5t62.5 -154.5t-62.5 -154.5t-154.5 -62.5t-154.5 62.5 t-62.5 154.5zM1503 207q0 45 17.5 85t47 68.5t68.5 46t84 17.5t85 -17.5t70 -46t47 -68.5t17 -85t-17 -85t-47 -68.5t-70 -46t-85 -17.5t-84 17.5t-68.5 46t-47 68.5t-17.5 85z" />
<glyph unicode="&#x202f;" horiz-adv-x="372" />
<glyph unicode="&#x2039;" horiz-adv-x="655" d="M0 498l328 -369h327l-327 369l327 362h-327z" />
<glyph unicode="&#x203a;" horiz-adv-x="655" d="M0 129h328l327 369l-327 362h-328l328 -362z" />
<glyph unicode="&#x205f;" horiz-adv-x="465" />
<glyph unicode="&#x2122;" horiz-adv-x="933" d="M35 1313h127v-398h59v398h127v53h-313v-53zM422 915h59v373l154 -373h16l154 373v-373h57v451h-88l-131 -328l-131 328h-90v-451z" />
<glyph unicode="&#x25fc;" horiz-adv-x="993" d="M0 0v993h993v-993h-993z" />
</font>
</defs>
</svg>
